<mxfile host="app.diagrams.net" modified="2023-08-29T16:13:10.920Z" agent="Mozilla/5.0 (Windows NT 10.0; Win64; x64) AppleWebKit/537.36 (KHTML, like Gecko) Chrome/116.0.0.0 Safari/537.36" etag="KFw_ANGAJ3j_OqzdiL90" version="21.6.9" type="github">
  <diagram id="R2lEEEUBdFMjLlhIrx00" name="Page-1">
    <mxGraphModel dx="684" dy="629" grid="1" gridSize="10" guides="1" tooltips="1" connect="1" arrows="1" fold="1" page="1" pageScale="1" pageWidth="1169" pageHeight="827" math="0" shadow="0" extFonts="Permanent Marker^https://fonts.googleapis.com/css?family=Permanent+Marker">
      <root>
        <mxCell id="0" />
        <mxCell id="1" parent="0" />
        <mxCell id="1GqtW3D0vnaD6hVMnLZm-1" value="SCUOLA" style="rounded=0;whiteSpace=wrap;html=1;" parent="1" vertex="1">
          <mxGeometry x="1722.5" y="320" width="160" height="80" as="geometry" />
        </mxCell>
        <mxCell id="1GqtW3D0vnaD6hVMnLZm-3" value="PERSONA" style="rounded=0;whiteSpace=wrap;html=1;fontColor=#000000;" parent="1" vertex="1">
          <mxGeometry x="582.5" y="320" width="160" height="80" as="geometry" />
        </mxCell>
        <mxCell id="1GqtW3D0vnaD6hVMnLZm-5" value="E&#39; REFERENTE" style="rhombus;whiteSpace=wrap;html=1;fontColor=#000000;" parent="1" vertex="1">
          <mxGeometry x="1223.5" y="320" width="80" height="80" as="geometry" />
        </mxCell>
        <mxCell id="1GqtW3D0vnaD6hVMnLZm-8" value="CLASSE" style="rounded=0;whiteSpace=wrap;html=1;" parent="1" vertex="1">
          <mxGeometry x="1212" y="550" width="160" height="80" as="geometry" />
        </mxCell>
        <mxCell id="1GqtW3D0vnaD6hVMnLZm-12" value="ORTO" style="rounded=0;whiteSpace=wrap;html=1;" parent="1" vertex="1">
          <mxGeometry x="1742.5" y="689.5" width="160" height="80" as="geometry" />
        </mxCell>
        <mxCell id="1GqtW3D0vnaD6hVMnLZm-16" value="" style="endArrow=none;html=1;rounded=0;exitX=0;exitY=0.5;exitDx=0;exitDy=0;entryX=1;entryY=0.5;entryDx=0;entryDy=0;" parent="1" source="1GqtW3D0vnaD6hVMnLZm-1" target="1GqtW3D0vnaD6hVMnLZm-5" edge="1">
          <mxGeometry width="50" height="50" relative="1" as="geometry">
            <mxPoint x="1482.5" y="440" as="sourcePoint" />
            <mxPoint x="1482.5" y="360" as="targetPoint" />
          </mxGeometry>
        </mxCell>
        <mxCell id="1GqtW3D0vnaD6hVMnLZm-17" value="" style="endArrow=none;html=1;rounded=0;exitX=0;exitY=0.5;exitDx=0;exitDy=0;entryX=1;entryY=0.5;entryDx=0;entryDy=0;fontColor=#000000;" parent="1" source="1GqtW3D0vnaD6hVMnLZm-5" target="1GqtW3D0vnaD6hVMnLZm-3" edge="1">
          <mxGeometry width="50" height="50" relative="1" as="geometry">
            <mxPoint x="1292.5" y="430" as="sourcePoint" />
            <mxPoint x="1292.5" y="350" as="targetPoint" />
          </mxGeometry>
        </mxCell>
        <mxCell id="1GqtW3D0vnaD6hVMnLZm-21" value="REPLICA" style="rounded=0;whiteSpace=wrap;html=1;" parent="1" vertex="1">
          <mxGeometry x="1211.5" y="989.5" width="160" height="80" as="geometry" />
        </mxCell>
        <mxCell id="9_35HUgDkUIat2iefjqO-1" value="RILEVAZIONE" style="rounded=0;whiteSpace=wrap;html=1;fontColor=#000000;" parent="1" vertex="1">
          <mxGeometry x="412.5" y="740.5" width="160" height="80" as="geometry" />
        </mxCell>
        <mxCell id="9_35HUgDkUIat2iefjqO-9" value="DISPOSITIVO" style="rounded=0;whiteSpace=wrap;html=1;fontColor=#000000;" parent="1" vertex="1">
          <mxGeometry x="852.5" y="854.5" width="160" height="80" as="geometry" />
        </mxCell>
        <mxCell id="9_35HUgDkUIat2iefjqO-20" value="&lt;font style=&quot;font-size: 18px;&quot;&gt;CodP&lt;/font&gt;" style="text;html=1;strokeColor=none;fillColor=none;align=center;verticalAlign=middle;whiteSpace=wrap;rounded=0;fontColor=#000000;" parent="1" vertex="1">
          <mxGeometry x="422.5" y="340" width="60" height="40" as="geometry" />
        </mxCell>
        <mxCell id="9_35HUgDkUIat2iefjqO-26" value="" style="endArrow=none;html=1;rounded=0;entryX=0;entryY=1;entryDx=0;entryDy=0;fontColor=#000000;" parent="1" source="9_35HUgDkUIat2iefjqO-19" edge="1">
          <mxGeometry width="50" height="50" relative="1" as="geometry">
            <mxPoint x="502.5" y="360" as="sourcePoint" />
            <mxPoint x="582.5" y="360" as="targetPoint" />
          </mxGeometry>
        </mxCell>
        <mxCell id="9_35HUgDkUIat2iefjqO-27" value="" style="ellipse;whiteSpace=wrap;html=1;fillColor=#FFFFFF;direction=south;gradientColor=none;fontColor=#000000;" parent="1" vertex="1">
          <mxGeometry x="482.5" y="310" width="20" height="20" as="geometry" />
        </mxCell>
        <mxCell id="9_35HUgDkUIat2iefjqO-28" value="" style="endArrow=none;html=1;rounded=0;exitX=0.5;exitY=0;exitDx=0;exitDy=0;fontColor=#000000;" parent="1" source="9_35HUgDkUIat2iefjqO-27" edge="1">
          <mxGeometry width="50" height="50" relative="1" as="geometry">
            <mxPoint x="502.5" y="370" as="sourcePoint" />
            <mxPoint x="582.5" y="320" as="targetPoint" />
          </mxGeometry>
        </mxCell>
        <mxCell id="9_35HUgDkUIat2iefjqO-29" value="&lt;span style=&quot;font-size: 18px;&quot;&gt;Nome&lt;/span&gt;" style="text;html=1;strokeColor=none;fillColor=none;align=center;verticalAlign=middle;whiteSpace=wrap;rounded=0;fontColor=#000000;" parent="1" vertex="1">
          <mxGeometry x="422.5" y="300" width="60" height="40" as="geometry" />
        </mxCell>
        <mxCell id="9_35HUgDkUIat2iefjqO-31" value="" style="endArrow=none;html=1;rounded=0;fontColor=#000000;" parent="1" source="9_35HUgDkUIat2iefjqO-30" edge="1">
          <mxGeometry width="50" height="50" relative="1" as="geometry">
            <mxPoint x="502.5" y="240" as="sourcePoint" />
            <mxPoint x="582.5" y="319.40999999999997" as="targetPoint" />
          </mxGeometry>
        </mxCell>
        <mxCell id="9_35HUgDkUIat2iefjqO-32" value="&lt;span style=&quot;font-size: 18px;&quot;&gt;Cognome&lt;/span&gt;" style="text;html=1;strokeColor=none;fillColor=none;align=center;verticalAlign=middle;whiteSpace=wrap;rounded=0;fontColor=#000000;" parent="1" vertex="1">
          <mxGeometry x="422.5" y="220" width="90" height="40" as="geometry" />
        </mxCell>
        <mxCell id="9_35HUgDkUIat2iefjqO-34" value="" style="ellipse;whiteSpace=wrap;html=1;fillColor=#FFFFFF;direction=south;gradientColor=none;fontColor=#000000;" parent="1" vertex="1">
          <mxGeometry x="572.5" y="220" width="20" height="20" as="geometry" />
        </mxCell>
        <mxCell id="9_35HUgDkUIat2iefjqO-35" value="" style="endArrow=none;html=1;rounded=0;entryX=0;entryY=0;entryDx=0;entryDy=0;fontColor=#000000;" parent="1" target="1GqtW3D0vnaD6hVMnLZm-3" edge="1">
          <mxGeometry width="50" height="50" relative="1" as="geometry">
            <mxPoint x="582.5" y="240" as="sourcePoint" />
            <mxPoint x="582.5" y="318.81999999999994" as="targetPoint" />
          </mxGeometry>
        </mxCell>
        <mxCell id="9_35HUgDkUIat2iefjqO-36" value="&lt;span style=&quot;font-size: 18px;&quot;&gt;Email&lt;/span&gt;" style="text;html=1;strokeColor=none;fillColor=none;align=center;verticalAlign=middle;whiteSpace=wrap;rounded=0;fontColor=#000000;" parent="1" vertex="1">
          <mxGeometry x="527.5" y="190" width="60" height="40" as="geometry" />
        </mxCell>
        <mxCell id="9_35HUgDkUIat2iefjqO-38" value="" style="endArrow=none;html=1;rounded=0;entryX=0.25;entryY=0;entryDx=0;entryDy=0;fontColor=#000000;" parent="1" source="9_35HUgDkUIat2iefjqO-37" target="1GqtW3D0vnaD6hVMnLZm-3" edge="1">
          <mxGeometry width="50" height="50" relative="1" as="geometry">
            <mxPoint x="622.5" y="240" as="sourcePoint" />
            <mxPoint x="642.5" y="259.99999999999994" as="targetPoint" />
          </mxGeometry>
        </mxCell>
        <mxCell id="9_35HUgDkUIat2iefjqO-39" value="&lt;span style=&quot;font-size: 18px;&quot;&gt;Tel&lt;/span&gt;" style="text;html=1;strokeColor=none;fillColor=none;align=center;verticalAlign=middle;whiteSpace=wrap;rounded=0;fontColor=#000000;" parent="1" vertex="1">
          <mxGeometry x="602.5" y="190" width="40" height="40" as="geometry" />
        </mxCell>
        <mxCell id="9_35HUgDkUIat2iefjqO-40" value="" style="ellipse;whiteSpace=wrap;html=1;fillColor=#FFFFFF;direction=south;gradientColor=none;fontColor=#000000;" parent="1" vertex="1">
          <mxGeometry x="662.5" y="220" width="20" height="20" as="geometry" />
        </mxCell>
        <mxCell id="9_35HUgDkUIat2iefjqO-41" value="" style="endArrow=none;html=1;rounded=0;exitX=1;exitY=0.5;exitDx=0;exitDy=0;entryX=0;entryY=0;entryDx=0;entryDy=0;fontColor=#000000;" parent="1" source="9_35HUgDkUIat2iefjqO-40" edge="1">
          <mxGeometry width="50" height="50" relative="1" as="geometry">
            <mxPoint x="662.5" y="259.99999999999994" as="sourcePoint" />
            <mxPoint x="672.5" y="320" as="targetPoint" />
          </mxGeometry>
        </mxCell>
        <mxCell id="9_35HUgDkUIat2iefjqO-42" value="&lt;span style=&quot;font-size: 18px;&quot;&gt;Ruolo&lt;/span&gt;" style="text;html=1;strokeColor=none;fillColor=none;align=center;verticalAlign=middle;whiteSpace=wrap;rounded=0;fontColor=#000000;" parent="1" vertex="1">
          <mxGeometry x="642.5" y="190" width="60" height="40" as="geometry" />
        </mxCell>
        <mxCell id="9_35HUgDkUIat2iefjqO-46" value="" style="ellipse;whiteSpace=wrap;html=1;fillColor=#000000;direction=south;" parent="1" vertex="1">
          <mxGeometry x="1647.5" y="260" width="20" height="20" as="geometry" />
        </mxCell>
        <mxCell id="9_35HUgDkUIat2iefjqO-47" value="" style="endArrow=none;html=1;rounded=0;entryX=1;entryY=0;entryDx=0;entryDy=0;exitX=0;exitY=0;exitDx=0;exitDy=0;" parent="1" source="1GqtW3D0vnaD6hVMnLZm-1" target="9_35HUgDkUIat2iefjqO-46" edge="1">
          <mxGeometry width="50" height="50" relative="1" as="geometry">
            <mxPoint x="1662.5" y="320" as="sourcePoint" />
            <mxPoint x="1662.5" y="250" as="targetPoint" />
          </mxGeometry>
        </mxCell>
        <mxCell id="9_35HUgDkUIat2iefjqO-48" value="&lt;font style=&quot;font-size: 18px;&quot;&gt;CodMec&lt;/font&gt;" style="text;html=1;strokeColor=none;fillColor=none;align=center;verticalAlign=middle;whiteSpace=wrap;rounded=0;" parent="1" vertex="1">
          <mxGeometry x="1587.5" y="225" width="80" height="40" as="geometry" />
        </mxCell>
        <mxCell id="9_35HUgDkUIat2iefjqO-49" value="" style="endArrow=none;html=1;rounded=0;exitX=0.063;exitY=-0.017;exitDx=0;exitDy=0;exitPerimeter=0;" parent="1" source="1GqtW3D0vnaD6hVMnLZm-1" edge="1">
          <mxGeometry width="50" height="50" relative="1" as="geometry">
            <mxPoint x="1882.5" y="398.82" as="sourcePoint" />
            <mxPoint x="1716.5" y="250" as="targetPoint" />
          </mxGeometry>
        </mxCell>
        <mxCell id="9_35HUgDkUIat2iefjqO-50" value="" style="ellipse;whiteSpace=wrap;html=1;fillColor=#FFFFFF;direction=south;gradientColor=none;" parent="1" vertex="1">
          <mxGeometry x="1706.5" y="234.31" width="20" height="20" as="geometry" />
        </mxCell>
        <mxCell id="9_35HUgDkUIat2iefjqO-51" value="&lt;span style=&quot;font-size: 18px;&quot;&gt;Nome&lt;/span&gt;" style="text;html=1;strokeColor=none;fillColor=none;align=center;verticalAlign=middle;whiteSpace=wrap;rounded=0;" parent="1" vertex="1">
          <mxGeometry x="1673.5" y="200" width="60" height="40" as="geometry" />
        </mxCell>
        <mxCell id="9_35HUgDkUIat2iefjqO-52" value="" style="ellipse;whiteSpace=wrap;html=1;fillColor=#FFFFFF;direction=south;gradientColor=none;" parent="1" vertex="1">
          <mxGeometry x="1752.5" y="230" width="20" height="20" as="geometry" />
        </mxCell>
        <mxCell id="9_35HUgDkUIat2iefjqO-54" value="" style="endArrow=none;html=1;rounded=0;exitX=0.25;exitY=0;exitDx=0;exitDy=0;entryX=1;entryY=0.5;entryDx=0;entryDy=0;" parent="1" source="1GqtW3D0vnaD6hVMnLZm-1" target="9_35HUgDkUIat2iefjqO-52" edge="1">
          <mxGeometry width="50" height="50" relative="1" as="geometry">
            <mxPoint x="2022.5" y="395.82" as="sourcePoint" />
            <mxPoint x="1762.5" y="270" as="targetPoint" />
          </mxGeometry>
        </mxCell>
        <mxCell id="9_35HUgDkUIat2iefjqO-55" value="&lt;span style=&quot;font-size: 18px;&quot;&gt;Prov&lt;/span&gt;" style="text;html=1;strokeColor=none;fillColor=none;align=center;verticalAlign=middle;whiteSpace=wrap;rounded=0;" parent="1" vertex="1">
          <mxGeometry x="1737.5" y="190" width="50" height="40" as="geometry" />
        </mxCell>
        <mxCell id="9_35HUgDkUIat2iefjqO-57" value="" style="ellipse;whiteSpace=wrap;html=1;fillColor=#FFFFFF;direction=south;gradientColor=none;" parent="1" vertex="1">
          <mxGeometry x="1812.5" y="230" width="20" height="20" as="geometry" />
        </mxCell>
        <mxCell id="9_35HUgDkUIat2iefjqO-67" value="" style="endArrow=none;html=1;rounded=0;exitX=0.25;exitY=0;exitDx=0;exitDy=0;entryX=1;entryY=0.5;entryDx=0;entryDy=0;" parent="1" edge="1">
          <mxGeometry width="50" height="50" relative="1" as="geometry">
            <mxPoint x="1822.5" y="320" as="sourcePoint" />
            <mxPoint x="1822.5" y="250" as="targetPoint" />
          </mxGeometry>
        </mxCell>
        <mxCell id="9_35HUgDkUIat2iefjqO-68" value="&lt;span style=&quot;font-size: 18px;&quot;&gt;CicloIstruz&lt;/span&gt;" style="text;html=1;strokeColor=none;fillColor=none;align=center;verticalAlign=middle;whiteSpace=wrap;rounded=0;" parent="1" vertex="1">
          <mxGeometry x="1811.5" y="200" width="50" height="40" as="geometry" />
        </mxCell>
        <mxCell id="9_35HUgDkUIat2iefjqO-73" value="" style="ellipse;whiteSpace=wrap;html=1;fillColor=#FFFFFF;direction=south;gradientColor=none;" parent="1" vertex="1">
          <mxGeometry x="1872.5" y="235" width="20" height="20" as="geometry" />
        </mxCell>
        <mxCell id="9_35HUgDkUIat2iefjqO-74" value="" style="endArrow=none;html=1;rounded=0;" parent="1" target="9_35HUgDkUIat2iefjqO-73" edge="1">
          <mxGeometry width="50" height="50" relative="1" as="geometry">
            <mxPoint x="1882.5" y="320" as="sourcePoint" />
            <mxPoint x="1912.5" y="260" as="targetPoint" />
          </mxGeometry>
        </mxCell>
        <mxCell id="9_35HUgDkUIat2iefjqO-76" value="&lt;span style=&quot;font-size: 18px;&quot;&gt;Finanziamento&lt;/span&gt;" style="text;html=1;strokeColor=none;fillColor=none;align=center;verticalAlign=middle;whiteSpace=wrap;rounded=0;" parent="1" vertex="1">
          <mxGeometry x="1932.5" y="220" width="50" height="40" as="geometry" />
        </mxCell>
        <mxCell id="sEJmzOU2EiKCbzuNRIoM-1" value="" style="endArrow=none;html=1;rounded=0;entryX=0.25;entryY=0;entryDx=0;entryDy=0;fontColor=#000000;" parent="1" target="9_35HUgDkUIat2iefjqO-37" edge="1">
          <mxGeometry width="50" height="50" relative="1" as="geometry">
            <mxPoint x="622.5" y="240" as="sourcePoint" />
            <mxPoint x="622.5" y="320" as="targetPoint" />
          </mxGeometry>
        </mxCell>
        <mxCell id="9_35HUgDkUIat2iefjqO-37" value="" style="ellipse;whiteSpace=wrap;html=1;fillColor=#FFFFFF;direction=south;gradientColor=none;fontColor=#000000;" parent="1" vertex="1">
          <mxGeometry x="612.5" y="220" width="20" height="20" as="geometry" />
        </mxCell>
        <mxCell id="sEJmzOU2EiKCbzuNRIoM-5" value="" style="endArrow=none;html=1;rounded=0;entryX=0;entryY=1;entryDx=0;entryDy=0;fontColor=#000000;" parent="1" target="9_35HUgDkUIat2iefjqO-19" edge="1">
          <mxGeometry width="50" height="50" relative="1" as="geometry">
            <mxPoint x="502.5" y="360" as="sourcePoint" />
            <mxPoint x="582.5" y="360" as="targetPoint" />
          </mxGeometry>
        </mxCell>
        <mxCell id="9_35HUgDkUIat2iefjqO-19" value="" style="ellipse;whiteSpace=wrap;html=1;fillColor=#000000;direction=south;fontColor=#000000;" parent="1" vertex="1">
          <mxGeometry x="482.5" y="350" width="20" height="20" as="geometry" />
        </mxCell>
        <mxCell id="9_35HUgDkUIat2iefjqO-30" value="" style="ellipse;whiteSpace=wrap;html=1;fillColor=#FFFFFF;direction=south;gradientColor=none;fontColor=#000000;" parent="1" vertex="1">
          <mxGeometry x="507.5" y="250" width="20" height="20" as="geometry" />
        </mxCell>
        <mxCell id="RJAvJlLTRPXdLiwuO2cF-4" value="&lt;font style=&quot;font-size: 18px;&quot;&gt;CodC&lt;/font&gt;" style="text;html=1;strokeColor=none;fillColor=none;align=center;verticalAlign=middle;whiteSpace=wrap;rounded=0;fontColor=#000000;" parent="1" vertex="1">
          <mxGeometry x="1134" y="464.52" width="60" height="24" as="geometry" />
        </mxCell>
        <mxCell id="RJAvJlLTRPXdLiwuO2cF-8" value="" style="endArrow=none;html=1;rounded=0;exitX=0.379;exitY=-0.001;exitDx=0;exitDy=0;exitPerimeter=0;fontColor=#000000;" parent="1" edge="1">
          <mxGeometry width="50" height="50" relative="1" as="geometry">
            <mxPoint x="1314.1399999999999" y="549.9999999999998" as="sourcePoint" />
            <mxPoint x="1314" y="480.08" as="targetPoint" />
          </mxGeometry>
        </mxCell>
        <mxCell id="RJAvJlLTRPXdLiwuO2cF-9" value="&lt;font style=&quot;font-size: 18px;&quot;&gt;Ordine&lt;/font&gt;" style="text;html=1;strokeColor=none;fillColor=none;align=center;verticalAlign=middle;whiteSpace=wrap;rounded=0;" parent="1" vertex="1">
          <mxGeometry x="1279" y="434.52" width="60" height="30" as="geometry" />
        </mxCell>
        <mxCell id="RJAvJlLTRPXdLiwuO2cF-11" value="" style="endArrow=none;html=1;rounded=0;exitX=0.694;exitY=-0.01;exitDx=0;exitDy=0;exitPerimeter=0;" parent="1" target="mI0G9RqRu6ml6arS59rm-14" edge="1">
          <mxGeometry width="50" height="50" relative="1" as="geometry">
            <mxPoint x="1364.54" y="549.28" as="sourcePoint" />
            <mxPoint x="1340" y="476.08" as="targetPoint" />
          </mxGeometry>
        </mxCell>
        <mxCell id="RJAvJlLTRPXdLiwuO2cF-13" value="&lt;font style=&quot;font-size: 18px;&quot;&gt;TipoScuola&lt;/font&gt;" style="text;html=1;strokeColor=none;fillColor=none;align=center;verticalAlign=middle;whiteSpace=wrap;rounded=0;" parent="1" vertex="1">
          <mxGeometry x="1389.5" y="455.08" width="60" height="30" as="geometry" />
        </mxCell>
        <mxCell id="RJAvJlLTRPXdLiwuO2cF-17" value="" style="endArrow=none;html=1;rounded=0;exitX=0.117;exitY=-0.012;exitDx=0;exitDy=0;exitPerimeter=0;fontColor=#000000;" parent="1" source="1GqtW3D0vnaD6hVMnLZm-8" target="RJAvJlLTRPXdLiwuO2cF-2" edge="1">
          <mxGeometry width="50" height="50" relative="1" as="geometry">
            <mxPoint x="1196.5" y="540" as="sourcePoint" />
            <mxPoint x="1125.06" y="497.44000000000005" as="targetPoint" />
          </mxGeometry>
        </mxCell>
        <mxCell id="RJAvJlLTRPXdLiwuO2cF-2" value="" style="ellipse;whiteSpace=wrap;html=1;aspect=fixed;fillColor=#000000;fontColor=#000000;" parent="1" vertex="1">
          <mxGeometry x="1191.5" y="476.02" width="20" height="20" as="geometry" />
        </mxCell>
        <mxCell id="OYPGstpTxhAQt0Nlltqd-1" value="" style="endArrow=none;html=1;rounded=0;entryX=0;entryY=0.75;entryDx=0;entryDy=0;fontColor=#000000;" parent="1" source="OYPGstpTxhAQt0Nlltqd-2" target="9_35HUgDkUIat2iefjqO-1" edge="1">
          <mxGeometry width="50" height="50" relative="1" as="geometry">
            <mxPoint x="340" y="824.5" as="sourcePoint" />
            <mxPoint x="412.5" y="810" as="targetPoint" />
          </mxGeometry>
        </mxCell>
        <mxCell id="OYPGstpTxhAQt0Nlltqd-2" value="" style="ellipse;whiteSpace=wrap;html=1;fillColor=#000000;direction=south;fontColor=#000000;" parent="1" vertex="1">
          <mxGeometry x="320" y="810" width="20" height="20" as="geometry" />
        </mxCell>
        <mxCell id="OYPGstpTxhAQt0Nlltqd-3" value="&lt;font style=&quot;font-size: 18px;&quot;&gt;CodRil&lt;/font&gt;" style="text;html=1;strokeColor=none;fillColor=none;align=center;verticalAlign=middle;whiteSpace=wrap;rounded=0;fontColor=#000000;" parent="1" vertex="1">
          <mxGeometry x="260" y="800" width="60" height="40" as="geometry" />
        </mxCell>
        <mxCell id="OYPGstpTxhAQt0Nlltqd-8" value="" style="endArrow=none;html=1;rounded=0;entryX=0;entryY=0.5;entryDx=0;entryDy=0;fontColor=#000000;" parent="1" target="9_35HUgDkUIat2iefjqO-1" edge="1" source="OYPGstpTxhAQt0Nlltqd-9">
          <mxGeometry width="50" height="50" relative="1" as="geometry">
            <mxPoint x="340" y="784" as="sourcePoint" />
            <mxPoint x="420" y="784" as="targetPoint" />
          </mxGeometry>
        </mxCell>
        <mxCell id="OYPGstpTxhAQt0Nlltqd-9" value="" style="ellipse;whiteSpace=wrap;html=1;fillColor=#FFFFFF;direction=south;gradientColor=none;fontColor=#000000;" parent="1" vertex="1">
          <mxGeometry x="326.25" y="754.5" width="20" height="20" as="geometry" />
        </mxCell>
        <mxCell id="OYPGstpTxhAQt0Nlltqd-10" value="&lt;span style=&quot;font-size: 18px;&quot;&gt;DataRil&lt;/span&gt;" style="text;html=1;strokeColor=none;fillColor=none;align=center;verticalAlign=middle;whiteSpace=wrap;rounded=0;fontColor=#000000;" parent="1" vertex="1">
          <mxGeometry x="250" y="750" width="80" height="40" as="geometry" />
        </mxCell>
        <mxCell id="OYPGstpTxhAQt0Nlltqd-11" value="" style="endArrow=none;html=1;rounded=0;fontColor=#000000;" parent="1" edge="1" source="OYPGstpTxhAQt0Nlltqd-12">
          <mxGeometry width="50" height="50" relative="1" as="geometry">
            <mxPoint x="340" y="744.5" as="sourcePoint" />
            <mxPoint x="412.5" y="745" as="targetPoint" />
          </mxGeometry>
        </mxCell>
        <mxCell id="OYPGstpTxhAQt0Nlltqd-12" value="" style="ellipse;whiteSpace=wrap;html=1;fillColor=#FFFFFF;direction=south;gradientColor=none;fontColor=#000000;" parent="1" vertex="1">
          <mxGeometry x="340" y="710" width="20" height="20" as="geometry" />
        </mxCell>
        <mxCell id="OYPGstpTxhAQt0Nlltqd-13" value="&lt;span style=&quot;font-size: 18px;&quot;&gt;DataIns&lt;/span&gt;" style="text;html=1;strokeColor=none;fillColor=none;align=center;verticalAlign=middle;whiteSpace=wrap;rounded=0;fontColor=#000000;" parent="1" vertex="1">
          <mxGeometry x="260" y="701.5" width="80" height="40" as="geometry" />
        </mxCell>
        <mxCell id="OYPGstpTxhAQt0Nlltqd-26" value="" style="endArrow=none;html=1;rounded=0;entryX=0.958;entryY=-0.011;entryDx=0;entryDy=0;entryPerimeter=0;" parent="1" source="KoG7FEM-wuRYnveiXtvF-3" target="1GqtW3D0vnaD6hVMnLZm-21" edge="1">
          <mxGeometry width="50" height="50" relative="1" as="geometry">
            <mxPoint x="1444.4999999999995" y="1040" as="sourcePoint" />
            <mxPoint x="1372.5" y="1040" as="targetPoint" />
          </mxGeometry>
        </mxCell>
        <mxCell id="OYPGstpTxhAQt0Nlltqd-28" value="&lt;span style=&quot;font-size: 18px;&quot;&gt;CodRepl&lt;/span&gt;" style="text;html=1;strokeColor=none;fillColor=none;align=center;verticalAlign=middle;whiteSpace=wrap;rounded=0;" parent="1" vertex="1">
          <mxGeometry x="1412.75" y="940" width="81.5" height="30" as="geometry" />
        </mxCell>
        <mxCell id="OYPGstpTxhAQt0Nlltqd-29" value="" style="endArrow=none;html=1;rounded=0;fontColor=#000000;entryX=1;entryY=0.25;entryDx=0;entryDy=0;" parent="1" source="6aBFrncr1ybNil_s4C4L-1" target="FwptbRE5Cjejp8aSv0t5-5" edge="1">
          <mxGeometry width="50" height="50" relative="1" as="geometry">
            <mxPoint x="1943.1112368411873" y="994.4425464915644" as="sourcePoint" />
            <mxPoint x="1942.5" y="1027.3571428571427" as="targetPoint" />
          </mxGeometry>
        </mxCell>
        <mxCell id="OYPGstpTxhAQt0Nlltqd-30" value="&lt;span style=&quot;font-size: 18px;&quot;&gt;CodGruppo&lt;/span&gt;" style="text;html=1;strokeColor=none;fillColor=none;align=center;verticalAlign=middle;whiteSpace=wrap;rounded=0;fontColor=#000000;" parent="1" vertex="1">
          <mxGeometry x="1995.22" y="996" width="50" height="30" as="geometry" />
        </mxCell>
        <mxCell id="OYPGstpTxhAQt0Nlltqd-36" value="" style="endArrow=none;html=1;rounded=0;fontColor=#000000;" parent="1" source="OYPGstpTxhAQt0Nlltqd-37" target="1GqtW3D0vnaD6hVMnLZm-21" edge="1">
          <mxGeometry width="50" height="50" relative="1" as="geometry">
            <mxPoint x="1353.5" y="900" as="sourcePoint" />
            <mxPoint x="1342.7" y="945.3599999999999" as="targetPoint" />
          </mxGeometry>
        </mxCell>
        <mxCell id="OYPGstpTxhAQt0Nlltqd-37" value="" style="ellipse;whiteSpace=wrap;html=1;fillColor=#FFFFFF;direction=south;gradientColor=none;" parent="1" vertex="1">
          <mxGeometry x="1211.5" y="934.5" width="20" height="20" as="geometry" />
        </mxCell>
        <mxCell id="OYPGstpTxhAQt0Nlltqd-38" value="&lt;span style=&quot;font-size: 18px;&quot;&gt;DataDimora&lt;/span&gt;" style="text;html=1;strokeColor=none;fillColor=none;align=center;verticalAlign=middle;whiteSpace=wrap;rounded=0;" parent="1" vertex="1">
          <mxGeometry x="1181.5" y="909.5" width="40" height="30" as="geometry" />
        </mxCell>
        <mxCell id="OYPGstpTxhAQt0Nlltqd-73" value="&lt;span style=&quot;font-size: 18px;&quot;&gt;Nome&lt;/span&gt;" style="text;html=1;strokeColor=none;fillColor=none;align=center;verticalAlign=middle;whiteSpace=wrap;rounded=0;" parent="1" vertex="1">
          <mxGeometry x="1597.5" y="704.5" width="60" height="40" as="geometry" />
        </mxCell>
        <mxCell id="OYPGstpTxhAQt0Nlltqd-77" value="" style="endArrow=none;html=1;rounded=0;" parent="1" source="OYPGstpTxhAQt0Nlltqd-78" target="1GqtW3D0vnaD6hVMnLZm-12" edge="1">
          <mxGeometry width="50" height="50" relative="1" as="geometry">
            <mxPoint x="1815" y="829" as="sourcePoint" />
            <mxPoint x="1802.5" y="774.5" as="targetPoint" />
          </mxGeometry>
        </mxCell>
        <mxCell id="OYPGstpTxhAQt0Nlltqd-78" value="" style="ellipse;whiteSpace=wrap;html=1;fillColor=#FFFFFF;direction=south;gradientColor=none;" parent="1" vertex="1">
          <mxGeometry x="1673.5" y="764.5" width="20" height="20" as="geometry" />
        </mxCell>
        <mxCell id="OYPGstpTxhAQt0Nlltqd-81" value="&lt;span style=&quot;font-size: 18px;&quot;&gt;Tipo&lt;/span&gt;" style="text;html=1;strokeColor=none;fillColor=none;align=center;verticalAlign=middle;whiteSpace=wrap;rounded=0;" parent="1" vertex="1">
          <mxGeometry x="1621" y="754.5" width="45" height="40" as="geometry" />
        </mxCell>
        <mxCell id="OYPGstpTxhAQt0Nlltqd-82" value="" style="endArrow=none;html=1;rounded=0;entryX=0.866;entryY=0.998;entryDx=0;entryDy=0;entryPerimeter=0;" parent="1" source="OYPGstpTxhAQt0Nlltqd-87" edge="1">
          <mxGeometry width="50" height="50" relative="1" as="geometry">
            <mxPoint x="1752.67" y="826.25" as="sourcePoint" />
            <mxPoint x="1750.06" y="769.3400000000001" as="targetPoint" />
          </mxGeometry>
        </mxCell>
        <mxCell id="OYPGstpTxhAQt0Nlltqd-84" value="&lt;span style=&quot;font-size: 18px;&quot;&gt;GPS&lt;/span&gt;" style="text;html=1;strokeColor=none;fillColor=none;align=center;verticalAlign=middle;whiteSpace=wrap;rounded=0;" parent="1" vertex="1">
          <mxGeometry x="1652.5" y="802.5" width="40" height="34" as="geometry" />
        </mxCell>
        <mxCell id="OYPGstpTxhAQt0Nlltqd-85" value="" style="endArrow=none;html=1;rounded=0;" parent="1" source="OYPGstpTxhAQt0Nlltqd-86" target="1GqtW3D0vnaD6hVMnLZm-12" edge="1">
          <mxGeometry width="50" height="50" relative="1" as="geometry">
            <mxPoint x="1892.5" y="838" as="sourcePoint" />
            <mxPoint x="1882.5" y="768" as="targetPoint" />
          </mxGeometry>
        </mxCell>
        <mxCell id="OYPGstpTxhAQt0Nlltqd-87" value="" style="ellipse;whiteSpace=wrap;html=1;fillColor=#FFFFFF;direction=south;gradientColor=none;" parent="1" vertex="1">
          <mxGeometry x="1699.5" y="807" width="20" height="20" as="geometry" />
        </mxCell>
        <mxCell id="OYPGstpTxhAQt0Nlltqd-88" value="&lt;span style=&quot;font-size: 18px;&quot;&gt;Superf&lt;/span&gt;" style="text;html=1;strokeColor=none;fillColor=none;align=center;verticalAlign=middle;whiteSpace=wrap;rounded=0;" parent="1" vertex="1">
          <mxGeometry x="1972.5" y="749.5" width="40" height="40" as="geometry" />
        </mxCell>
        <mxCell id="OYPGstpTxhAQt0Nlltqd-89" value="" style="endArrow=none;html=1;rounded=0;entryX=1;entryY=0.5;entryDx=0;entryDy=0;" parent="1" source="OYPGstpTxhAQt0Nlltqd-90" edge="1" target="1GqtW3D0vnaD6hVMnLZm-12">
          <mxGeometry width="50" height="50" relative="1" as="geometry">
            <mxPoint x="2042.5" y="810.5" as="sourcePoint" />
            <mxPoint x="1902.5" y="737.5" as="targetPoint" />
          </mxGeometry>
        </mxCell>
        <mxCell id="OYPGstpTxhAQt0Nlltqd-90" value="" style="ellipse;whiteSpace=wrap;html=1;fillColor=#FFFFFF;direction=south;gradientColor=none;" parent="1" vertex="1">
          <mxGeometry x="1947.5" y="714.5" width="20" height="20" as="geometry" />
        </mxCell>
        <mxCell id="OYPGstpTxhAQt0Nlltqd-91" value="&lt;span style=&quot;font-size: 18px;&quot;&gt;Pulito&lt;/span&gt;" style="text;html=1;strokeColor=none;fillColor=none;align=center;verticalAlign=middle;whiteSpace=wrap;rounded=0;" parent="1" vertex="1">
          <mxGeometry x="1972.5" y="701.5" width="50" height="40" as="geometry" />
        </mxCell>
        <mxCell id="OYPGstpTxhAQt0Nlltqd-96" value="" style="endArrow=none;html=1;rounded=0;exitX=1;exitY=1;exitDx=0;exitDy=0;" parent="1" edge="1">
          <mxGeometry width="50" height="50" relative="1" as="geometry">
            <mxPoint x="1882.5" y="369.49" as="sourcePoint" />
            <mxPoint x="1962.5" y="369.49" as="targetPoint" />
            <Array as="points">
              <mxPoint x="1922.5" y="369.49" />
            </Array>
          </mxGeometry>
        </mxCell>
        <mxCell id="OYPGstpTxhAQt0Nlltqd-95" value="" style="ellipse;whiteSpace=wrap;html=1;fillColor=#FFFFFF;direction=south;gradientColor=none;" parent="1" vertex="1">
          <mxGeometry x="1962.5" y="360" width="20" height="20" as="geometry" />
        </mxCell>
        <mxCell id="OYPGstpTxhAQt0Nlltqd-97" value="&lt;span style=&quot;font-size: 18px;&quot;&gt;Collabora&lt;/span&gt;" style="text;html=1;strokeColor=none;fillColor=none;align=center;verticalAlign=middle;whiteSpace=wrap;rounded=0;" parent="1" vertex="1">
          <mxGeometry x="1982.5" y="350" width="80" height="40" as="geometry" />
        </mxCell>
        <mxCell id="OYPGstpTxhAQt0Nlltqd-101" value="" style="endArrow=none;html=1;rounded=0;entryX=0.995;entryY=0.66;entryDx=0;entryDy=0;entryPerimeter=0;fontColor=#000000;" parent="1" source="OYPGstpTxhAQt0Nlltqd-102" target="PH95ImstwBu5i2bBudpi-6" edge="1">
          <mxGeometry width="50" height="50" relative="1" as="geometry">
            <mxPoint x="586.25" y="1219" as="sourcePoint" />
            <mxPoint x="572.5154528148125" y="1155.2676658190144" as="targetPoint" />
          </mxGeometry>
        </mxCell>
        <mxCell id="OYPGstpTxhAQt0Nlltqd-102" value="" style="ellipse;whiteSpace=wrap;html=1;fillColor=#FFFFFF;direction=south;gradientColor=none;fontColor=#000000;" parent="1" vertex="1">
          <mxGeometry x="635" y="1154" width="20" height="20" as="geometry" />
        </mxCell>
        <mxCell id="OYPGstpTxhAQt0Nlltqd-103" value="&lt;span style=&quot;font-size: 18px;&quot;&gt;pH&lt;/span&gt;" style="text;html=1;strokeColor=none;fillColor=none;align=center;verticalAlign=middle;whiteSpace=wrap;rounded=0;fontColor=#000000;" parent="1" vertex="1">
          <mxGeometry x="653.5" y="1156.5" width="45" height="25" as="geometry" />
        </mxCell>
        <mxCell id="OYPGstpTxhAQt0Nlltqd-104" value="" style="endArrow=none;html=1;rounded=0;entryX=0.988;entryY=0.575;entryDx=0;entryDy=0;entryPerimeter=0;fontColor=#000000;" parent="1" source="OYPGstpTxhAQt0Nlltqd-105" target="PH95ImstwBu5i2bBudpi-6" edge="1">
          <mxGeometry width="50" height="50" relative="1" as="geometry">
            <mxPoint x="600.83" y="1204" as="sourcePoint" />
            <mxPoint x="586.625" y="1148.94" as="targetPoint" />
          </mxGeometry>
        </mxCell>
        <mxCell id="OYPGstpTxhAQt0Nlltqd-105" value="" style="ellipse;whiteSpace=wrap;html=1;fillColor=#FFFFFF;direction=south;gradientColor=none;fontColor=#000000;" parent="1" vertex="1">
          <mxGeometry x="633.5" y="1117" width="20" height="20" as="geometry" />
        </mxCell>
        <mxCell id="OYPGstpTxhAQt0Nlltqd-106" value="&lt;span style=&quot;font-size: 18px;&quot;&gt;Umidità&lt;/span&gt;" style="text;html=1;strokeColor=none;fillColor=none;align=center;verticalAlign=middle;whiteSpace=wrap;rounded=0;fontColor=#000000;" parent="1" vertex="1">
          <mxGeometry x="661.25" y="1107" width="55" height="40" as="geometry" />
        </mxCell>
        <mxCell id="OYPGstpTxhAQt0Nlltqd-107" value="" style="endArrow=none;html=1;rounded=0;entryX=1;entryY=0.25;entryDx=0;entryDy=0;fontColor=#000000;" parent="1" source="OYPGstpTxhAQt0Nlltqd-108" target="PH95ImstwBu5i2bBudpi-6" edge="1">
          <mxGeometry width="50" height="50" relative="1" as="geometry">
            <mxPoint x="662.92" y="1144" as="sourcePoint" />
            <mxPoint x="589" y="1121" as="targetPoint" />
          </mxGeometry>
        </mxCell>
        <mxCell id="OYPGstpTxhAQt0Nlltqd-108" value="" style="ellipse;whiteSpace=wrap;html=1;fillColor=#FFFFFF;direction=south;gradientColor=none;fontColor=#000000;" parent="1" vertex="1">
          <mxGeometry x="615" y="1076" width="20" height="20" as="geometry" />
        </mxCell>
        <mxCell id="OYPGstpTxhAQt0Nlltqd-109" value="&lt;span style=&quot;font-size: 18px;&quot;&gt;Temperatura&lt;/span&gt;" style="text;html=1;strokeColor=none;fillColor=none;align=center;verticalAlign=middle;whiteSpace=wrap;rounded=0;fontColor=#000000;" parent="1" vertex="1">
          <mxGeometry x="560.5" y="1043.5" width="100" height="40" as="geometry" />
        </mxCell>
        <mxCell id="OYPGstpTxhAQt0Nlltqd-86" value="" style="ellipse;whiteSpace=wrap;html=1;fillColor=#FFFFFF;direction=south;gradientColor=none;" parent="1" vertex="1">
          <mxGeometry x="1947.5" y="749.5" width="20" height="20" as="geometry" />
        </mxCell>
        <mxCell id="-W9HBCJ5S_jVVeni4LiE-18" value="" style="endArrow=none;html=1;rounded=0;" parent="1" target="-W9HBCJ5S_jVVeni4LiE-12" edge="1">
          <mxGeometry width="50" height="50" relative="1" as="geometry">
            <mxPoint x="1742.5" y="726.5045772034838" as="sourcePoint" />
            <mxPoint x="1753.33" y="820.59" as="targetPoint" />
          </mxGeometry>
        </mxCell>
        <mxCell id="-W9HBCJ5S_jVVeni4LiE-12" value="" style="ellipse;whiteSpace=wrap;html=1;fillColor=#FFFFFF;direction=south;gradientColor=none;" parent="1" vertex="1">
          <mxGeometry x="1657.5" y="714.5" width="20" height="20" as="geometry" />
        </mxCell>
        <mxCell id="xbkp54h4-bro_WAhH61t-3" value="" style="endArrow=none;html=1;rounded=0;exitX=1;exitY=1;exitDx=0;exitDy=0;" parent="1" target="xbkp54h4-bro_WAhH61t-4" edge="1">
          <mxGeometry width="50" height="50" relative="1" as="geometry">
            <mxPoint x="1882.5" y="329.49" as="sourcePoint" />
            <mxPoint x="1962.5" y="329.49" as="targetPoint" />
            <Array as="points" />
          </mxGeometry>
        </mxCell>
        <mxCell id="xbkp54h4-bro_WAhH61t-4" value="" style="ellipse;whiteSpace=wrap;html=1;fillColor=#FFFFFF;direction=south;gradientColor=none;" parent="1" vertex="1">
          <mxGeometry x="1942.5" y="300" width="20" height="20" as="geometry" />
        </mxCell>
        <mxCell id="xbkp54h4-bro_WAhH61t-5" value="&lt;span style=&quot;font-size: 18px;&quot;&gt;TipoFin&lt;/span&gt;" style="text;html=1;strokeColor=none;fillColor=none;align=center;verticalAlign=middle;whiteSpace=wrap;rounded=0;" parent="1" vertex="1">
          <mxGeometry x="1952.5" y="285" width="80" height="40" as="geometry" />
        </mxCell>
        <mxCell id="xbkp54h4-bro_WAhH61t-9" value="" style="endArrow=none;html=1;rounded=0;entryX=0.003;entryY=0.381;entryDx=0;entryDy=0;entryPerimeter=0;fontColor=#000000;" parent="1" source="xbkp54h4-bro_WAhH61t-10" target="PH95ImstwBu5i2bBudpi-6" edge="1">
          <mxGeometry width="50" height="50" relative="1" as="geometry">
            <mxPoint x="416.75" y="1196" as="sourcePoint" />
            <mxPoint x="408.98" y="1141.32" as="targetPoint" />
          </mxGeometry>
        </mxCell>
        <mxCell id="xbkp54h4-bro_WAhH61t-10" value="" style="ellipse;whiteSpace=wrap;html=1;fillColor=#FFFFFF;direction=south;gradientColor=none;fontColor=#000000;" parent="1" vertex="1">
          <mxGeometry x="343.75" y="1106" width="20" height="20" as="geometry" />
        </mxCell>
        <mxCell id="xbkp54h4-bro_WAhH61t-33" value="" style="endArrow=none;html=1;rounded=0;entryX=0;entryY=0.125;entryDx=0;entryDy=0;entryPerimeter=0;fontColor=#000000;" parent="1" source="xbkp54h4-bro_WAhH61t-34" target="PH95ImstwBu5i2bBudpi-6" edge="1">
          <mxGeometry width="50" height="50" relative="1" as="geometry">
            <mxPoint x="376.75" y="1153" as="sourcePoint" />
            <mxPoint x="416.19499999999994" y="1120.68" as="targetPoint" />
          </mxGeometry>
        </mxCell>
        <mxCell id="xbkp54h4-bro_WAhH61t-34" value="" style="ellipse;whiteSpace=wrap;html=1;fillColor=#FFFFFF;direction=south;gradientColor=none;fontColor=#000000;" parent="1" vertex="1">
          <mxGeometry x="363.75" y="1064" width="20" height="20" as="geometry" />
        </mxCell>
        <mxCell id="xbkp54h4-bro_WAhH61t-35" value="&lt;span style=&quot;font-size: 18px;&quot;&gt;LargChioma&lt;/span&gt;" style="text;html=1;strokeColor=none;fillColor=none;align=center;verticalAlign=middle;whiteSpace=wrap;rounded=0;fontColor=#000000;" parent="1" vertex="1">
          <mxGeometry x="313.75" y="1039" width="45" height="25" as="geometry" />
        </mxCell>
        <mxCell id="xbkp54h4-bro_WAhH61t-36" value="&lt;span style=&quot;font-size: 18px;&quot;&gt;LungChioma&lt;/span&gt;" style="text;html=1;strokeColor=none;fillColor=none;align=center;verticalAlign=middle;whiteSpace=wrap;rounded=0;fontColor=#000000;" parent="1" vertex="1">
          <mxGeometry x="270" y="1092" width="45" height="25" as="geometry" />
        </mxCell>
        <mxCell id="xbkp54h4-bro_WAhH61t-38" value="" style="endArrow=none;html=1;rounded=0;entryX=0;entryY=0.5;entryDx=0;entryDy=0;fontColor=#000000;" parent="1" source="xbkp54h4-bro_WAhH61t-39" target="PH95ImstwBu5i2bBudpi-6" edge="1">
          <mxGeometry width="50" height="50" relative="1" as="geometry">
            <mxPoint x="436.75" y="1225.48" as="sourcePoint" />
            <mxPoint x="425.94499999999994" y="1152.36" as="targetPoint" />
          </mxGeometry>
        </mxCell>
        <mxCell id="xbkp54h4-bro_WAhH61t-39" value="" style="ellipse;whiteSpace=wrap;html=1;fillColor=#FFFFFF;direction=south;gradientColor=none;fontColor=#000000;" parent="1" vertex="1">
          <mxGeometry x="348.75" y="1144" width="20" height="20" as="geometry" />
        </mxCell>
        <mxCell id="xbkp54h4-bro_WAhH61t-40" value="" style="endArrow=none;html=1;rounded=0;entryX=-0.005;entryY=0.628;entryDx=0;entryDy=0;entryPerimeter=0;fontColor=#000000;" parent="1" source="xbkp54h4-bro_WAhH61t-41" target="PH95ImstwBu5i2bBudpi-6" edge="1">
          <mxGeometry width="50" height="50" relative="1" as="geometry">
            <mxPoint x="461.75" y="1233.32" as="sourcePoint" />
            <mxPoint x="442.9100000000001" y="1156.92" as="targetPoint" />
          </mxGeometry>
        </mxCell>
        <mxCell id="xbkp54h4-bro_WAhH61t-41" value="" style="ellipse;whiteSpace=wrap;html=1;fillColor=#FFFFFF;direction=south;gradientColor=none;fontColor=#000000;" parent="1" vertex="1">
          <mxGeometry x="357.5" y="1184" width="20" height="20" as="geometry" />
        </mxCell>
        <mxCell id="xbkp54h4-bro_WAhH61t-42" value="" style="endArrow=none;html=1;rounded=0;entryX=0.003;entryY=0.863;entryDx=0;entryDy=0;entryPerimeter=0;fontColor=#000000;" parent="1" source="xbkp54h4-bro_WAhH61t-43" target="PH95ImstwBu5i2bBudpi-6" edge="1">
          <mxGeometry width="50" height="50" relative="1" as="geometry">
            <mxPoint x="491.75" y="1243" as="sourcePoint" />
            <mxPoint x="460.8499999999999" y="1161.66" as="targetPoint" />
          </mxGeometry>
        </mxCell>
        <mxCell id="xbkp54h4-bro_WAhH61t-43" value="" style="ellipse;whiteSpace=wrap;html=1;fillColor=#FFFFFF;direction=south;gradientColor=none;fontColor=#000000;" parent="1" vertex="1">
          <mxGeometry x="358.75" y="1216" width="20" height="20" as="geometry" />
        </mxCell>
        <mxCell id="xbkp54h4-bro_WAhH61t-44" value="&lt;span style=&quot;font-size: 18px;&quot;&gt;PesoFrescoChioma&lt;/span&gt;" style="text;html=1;strokeColor=none;fillColor=none;align=center;verticalAlign=middle;whiteSpace=wrap;rounded=0;fontColor=#000000;" parent="1" vertex="1">
          <mxGeometry x="248.75" y="1139" width="45" height="25" as="geometry" />
        </mxCell>
        <mxCell id="xbkp54h4-bro_WAhH61t-45" value="&lt;span style=&quot;font-size: 18px;&quot;&gt;PesoSeccoChioma&lt;/span&gt;" style="text;html=1;strokeColor=none;fillColor=none;align=center;verticalAlign=middle;whiteSpace=wrap;rounded=0;fontColor=#000000;" parent="1" vertex="1">
          <mxGeometry x="260" y="1181.5" width="45" height="25" as="geometry" />
        </mxCell>
        <mxCell id="xbkp54h4-bro_WAhH61t-47" value="" style="endArrow=none;html=1;rounded=0;entryX=0.168;entryY=1.003;entryDx=0;entryDy=0;entryPerimeter=0;fontColor=#000000;" parent="1" source="xbkp54h4-bro_WAhH61t-48" target="PH95ImstwBu5i2bBudpi-6" edge="1">
          <mxGeometry width="50" height="50" relative="1" as="geometry">
            <mxPoint x="516.75" y="1244" as="sourcePoint" />
            <mxPoint x="479.56999999999994" y="1164.06" as="targetPoint" />
          </mxGeometry>
        </mxCell>
        <mxCell id="xbkp54h4-bro_WAhH61t-48" value="" style="ellipse;whiteSpace=wrap;html=1;fillColor=#FFFFFF;direction=south;gradientColor=none;fontColor=#000000;" parent="1" vertex="1">
          <mxGeometry x="392.5" y="1246.5" width="20" height="20" as="geometry" />
        </mxCell>
        <mxCell id="xbkp54h4-bro_WAhH61t-51" value="" style="endArrow=none;html=1;rounded=0;entryX=0.353;entryY=1.003;entryDx=0;entryDy=0;entryPerimeter=0;fontColor=#000000;" parent="1" source="xbkp54h4-bro_WAhH61t-52" target="PH95ImstwBu5i2bBudpi-6" edge="1">
          <mxGeometry width="50" height="50" relative="1" as="geometry">
            <mxPoint x="546.75" y="1244" as="sourcePoint" />
            <mxPoint x="494.9749999999999" y="1164.84" as="targetPoint" />
          </mxGeometry>
        </mxCell>
        <mxCell id="xbkp54h4-bro_WAhH61t-52" value="" style="ellipse;whiteSpace=wrap;html=1;fillColor=#FFFFFF;direction=south;gradientColor=none;fontColor=#000000;" parent="1" vertex="1">
          <mxGeometry x="437.5" y="1271.5" width="20" height="20" as="geometry" />
        </mxCell>
        <mxCell id="xbkp54h4-bro_WAhH61t-53" value="" style="endArrow=none;html=1;rounded=0;fontColor=#000000;" parent="1" source="PH95ImstwBu5i2bBudpi-6" edge="1">
          <mxGeometry width="50" height="50" relative="1" as="geometry">
            <mxPoint x="586.75" y="1260.5" as="sourcePoint" />
            <mxPoint x="508.75" y="1164" as="targetPoint" />
          </mxGeometry>
        </mxCell>
        <mxCell id="xbkp54h4-bro_WAhH61t-54" value="" style="ellipse;whiteSpace=wrap;html=1;fillColor=#FFFFFF;direction=south;gradientColor=none;fontColor=#000000;" parent="1" vertex="1">
          <mxGeometry x="505" y="1290" width="20" height="20" as="geometry" />
        </mxCell>
        <mxCell id="xbkp54h4-bro_WAhH61t-55" value="" style="endArrow=none;html=1;rounded=0;entryX=0.627;entryY=1.014;entryDx=0;entryDy=0;entryPerimeter=0;fontColor=#000000;" parent="1" source="PH95ImstwBu5i2bBudpi-6" edge="1">
          <mxGeometry width="50" height="50" relative="1" as="geometry">
            <mxPoint x="615.75" y="1253" as="sourcePoint" />
            <mxPoint x="528.5150000000001" y="1164.84" as="targetPoint" />
          </mxGeometry>
        </mxCell>
        <mxCell id="xbkp54h4-bro_WAhH61t-56" value="" style="ellipse;whiteSpace=wrap;html=1;fillColor=#FFFFFF;direction=south;gradientColor=none;fontColor=#000000;" parent="1" vertex="1">
          <mxGeometry x="560.5" y="1277" width="20" height="20" as="geometry" />
        </mxCell>
        <mxCell id="xbkp54h4-bro_WAhH61t-57" value="" style="endArrow=none;html=1;rounded=0;entryX=0.833;entryY=1.005;entryDx=0;entryDy=0;entryPerimeter=0;fontColor=#000000;" parent="1" source="xbkp54h4-bro_WAhH61t-58" target="PH95ImstwBu5i2bBudpi-6" edge="1">
          <mxGeometry width="50" height="50" relative="1" as="geometry">
            <mxPoint x="653.25" y="1228" as="sourcePoint" />
            <mxPoint x="541.97" y="1163.04" as="targetPoint" />
          </mxGeometry>
        </mxCell>
        <mxCell id="xbkp54h4-bro_WAhH61t-58" value="" style="ellipse;whiteSpace=wrap;html=1;fillColor=#FFFFFF;direction=south;gradientColor=none;fontColor=#000000;" parent="1" vertex="1">
          <mxGeometry x="603.75" y="1254" width="20" height="20" as="geometry" />
        </mxCell>
        <mxCell id="xbkp54h4-bro_WAhH61t-59" value="" style="endArrow=none;html=1;rounded=0;entryX=1;entryY=1;entryDx=0;entryDy=0;fontColor=#000000;" parent="1" source="xbkp54h4-bro_WAhH61t-60" target="PH95ImstwBu5i2bBudpi-6" edge="1">
          <mxGeometry width="50" height="50" relative="1" as="geometry">
            <mxPoint x="706.25" y="1174" as="sourcePoint" />
            <mxPoint x="556.595" y="1162.5" as="targetPoint" />
          </mxGeometry>
        </mxCell>
        <mxCell id="xbkp54h4-bro_WAhH61t-60" value="" style="ellipse;whiteSpace=wrap;html=1;fillColor=#FFFFFF;direction=south;gradientColor=none;fontColor=#000000;" parent="1" vertex="1">
          <mxGeometry x="621" y="1221.5" width="20" height="20" as="geometry" />
        </mxCell>
        <mxCell id="xbkp54h4-bro_WAhH61t-62" value="" style="endArrow=none;html=1;rounded=0;entryX=0.99;entryY=0.8;entryDx=0;entryDy=0;entryPerimeter=0;fontColor=#000000;" parent="1" source="xbkp54h4-bro_WAhH61t-63" target="PH95ImstwBu5i2bBudpi-6" edge="1">
          <mxGeometry width="50" height="50" relative="1" as="geometry">
            <mxPoint x="709.25" y="1183" as="sourcePoint" />
            <mxPoint x="565.565" y="1157.16" as="targetPoint" />
          </mxGeometry>
        </mxCell>
        <mxCell id="xbkp54h4-bro_WAhH61t-63" value="" style="ellipse;whiteSpace=wrap;html=1;fillColor=#FFFFFF;direction=south;gradientColor=none;fontColor=#000000;" parent="1" vertex="1">
          <mxGeometry x="635" y="1189" width="20" height="20" as="geometry" />
        </mxCell>
        <mxCell id="xbkp54h4-bro_WAhH61t-64" value="&lt;span style=&quot;font-size: 18px;&quot;&gt;AltPianta&lt;/span&gt;" style="text;html=1;strokeColor=none;fillColor=none;align=center;verticalAlign=middle;whiteSpace=wrap;rounded=0;fontColor=#000000;" parent="1" vertex="1">
          <mxGeometry x="287.5" y="1224" width="45" height="25" as="geometry" />
        </mxCell>
        <mxCell id="xbkp54h4-bro_WAhH61t-65" value="&lt;span style=&quot;font-size: 18px;&quot;&gt;LungRadici&lt;/span&gt;" style="text;html=1;strokeColor=none;fillColor=none;align=center;verticalAlign=middle;whiteSpace=wrap;rounded=0;fontColor=#000000;" parent="1" vertex="1">
          <mxGeometry x="328.75" y="1260" width="45" height="25" as="geometry" />
        </mxCell>
        <mxCell id="xbkp54h4-bro_WAhH61t-66" value="&lt;span style=&quot;font-size: 18px;&quot;&gt;PesoFrescoRaidici&lt;/span&gt;" style="text;html=1;strokeColor=none;fillColor=none;align=center;verticalAlign=middle;whiteSpace=wrap;rounded=0;fontColor=#000000;" parent="1" vertex="1">
          <mxGeometry x="367.5" y="1290" width="45" height="25" as="geometry" />
        </mxCell>
        <mxCell id="xbkp54h4-bro_WAhH61t-67" value="&lt;span style=&quot;font-family: Helvetica; font-size: 18px; font-style: normal; font-variant-ligatures: normal; font-variant-caps: normal; font-weight: 400; letter-spacing: normal; orphans: 2; text-align: center; text-indent: 0px; text-transform: none; widows: 2; word-spacing: 0px; -webkit-text-stroke-width: 0px; text-decoration-thickness: initial; text-decoration-style: initial; text-decoration-color: initial; float: none; display: inline !important;&quot;&gt;PesoSeccoRaidici&lt;/span&gt;" style="text;whiteSpace=wrap;html=1;fontColor=#000000;" parent="1" vertex="1">
          <mxGeometry x="417.5" y="1310" width="132.5" height="30" as="geometry" />
        </mxCell>
        <mxCell id="xbkp54h4-bro_WAhH61t-68" value="&lt;span style=&quot;font-family: Helvetica; font-size: 18px; font-style: normal; font-variant-ligatures: normal; font-variant-caps: normal; font-weight: 400; letter-spacing: normal; orphans: 2; text-align: center; text-indent: 0px; text-transform: none; widows: 2; word-spacing: 0px; -webkit-text-stroke-width: 0px; text-decoration-thickness: initial; text-decoration-style: initial; text-decoration-color: initial; float: none; display: inline !important;&quot;&gt;NumFiori&lt;/span&gt;" style="text;whiteSpace=wrap;html=1;fontColor=#000000;" parent="1" vertex="1">
          <mxGeometry x="565" y="1297" width="85" height="30" as="geometry" />
        </mxCell>
        <mxCell id="xbkp54h4-bro_WAhH61t-70" value="&lt;span style=&quot;font-family: Helvetica; font-size: 18px; font-style: normal; font-variant-ligatures: normal; font-variant-caps: normal; font-weight: 400; letter-spacing: normal; orphans: 2; text-align: center; text-indent: 0px; text-transform: none; widows: 2; word-spacing: 0px; -webkit-text-stroke-width: 0px; text-decoration-thickness: initial; text-decoration-style: initial; text-decoration-color: initial; float: none; display: inline !important;&quot;&gt;NumFrutti&lt;/span&gt;" style="text;whiteSpace=wrap;html=1;fontColor=#000000;" parent="1" vertex="1">
          <mxGeometry x="629" y="1260" width="90" height="30" as="geometry" />
        </mxCell>
        <mxCell id="xbkp54h4-bro_WAhH61t-72" value="&lt;div style=&quot;text-align: center;&quot;&gt;&lt;span style=&quot;background-color: initial; font-size: 18px;&quot;&gt;&amp;nbsp;NumFoglieDann&lt;/span&gt;&lt;/div&gt;" style="text;whiteSpace=wrap;html=1;fontColor=#000000;" parent="1" vertex="1">
          <mxGeometry x="645" y="1216.5" width="135" height="30" as="geometry" />
        </mxCell>
        <mxCell id="xbkp54h4-bro_WAhH61t-73" value="&lt;span style=&quot;font-family: Helvetica; font-size: 18px; font-style: normal; font-variant-ligatures: normal; font-variant-caps: normal; font-weight: 400; letter-spacing: normal; orphans: 2; text-align: center; text-indent: 0px; text-transform: none; widows: 2; word-spacing: 0px; -webkit-text-stroke-width: 0px; text-decoration-thickness: initial; text-decoration-style: initial; text-decoration-color: initial; float: none; display: inline !important;&quot;&gt;SuperfDann&lt;/span&gt;" style="text;whiteSpace=wrap;html=1;fontColor=#000000;" parent="1" vertex="1">
          <mxGeometry x="660.5" y="1184" width="90" height="30" as="geometry" />
        </mxCell>
        <mxCell id="mI0G9RqRu6ml6arS59rm-1" value="" style="endArrow=none;html=1;rounded=0;fontColor=#000000;entryX=0.002;entryY=0.157;entryDx=0;entryDy=0;entryPerimeter=0;" parent="1" source="mI0G9RqRu6ml6arS59rm-164" target="9_35HUgDkUIat2iefjqO-9" edge="1">
          <mxGeometry width="50" height="50" relative="1" as="geometry">
            <mxPoint x="651.81" y="683.5" as="sourcePoint" />
            <mxPoint x="850" y="900" as="targetPoint" />
          </mxGeometry>
        </mxCell>
        <mxCell id="mI0G9RqRu6ml6arS59rm-3" value="" style="endArrow=none;html=1;rounded=0;fontColor=#000000;entryX=0.177;entryY=0.995;entryDx=0;entryDy=0;entryPerimeter=0;" parent="1" source="mI0G9RqRu6ml6arS59rm-5" target="9_35HUgDkUIat2iefjqO-9" edge="1">
          <mxGeometry width="50" height="50" relative="1" as="geometry">
            <mxPoint x="840" y="970" as="sourcePoint" />
            <mxPoint x="982.4999999999999" y="855.98" as="targetPoint" />
          </mxGeometry>
        </mxCell>
        <mxCell id="mI0G9RqRu6ml6arS59rm-4" value="&lt;span style=&quot;font-size: 18px;&quot;&gt;Tipo&lt;/span&gt;" style="text;html=1;strokeColor=none;fillColor=none;align=center;verticalAlign=middle;whiteSpace=wrap;rounded=0;fontColor=#000000;" parent="1" vertex="1">
          <mxGeometry x="771.81" y="948.5" width="50" height="30" as="geometry" />
        </mxCell>
        <mxCell id="mI0G9RqRu6ml6arS59rm-5" value="" style="ellipse;whiteSpace=wrap;html=1;fillColor=#FFFFFF;direction=south;gradientColor=none;fontColor=#000000;" parent="1" vertex="1">
          <mxGeometry x="821.81" y="953.5" width="20" height="20" as="geometry" />
        </mxCell>
        <mxCell id="mI0G9RqRu6ml6arS59rm-8" value="&lt;span style=&quot;font-size: 18px;&quot;&gt;CodDisp&lt;/span&gt;" style="text;html=1;strokeColor=none;fillColor=none;align=center;verticalAlign=middle;whiteSpace=wrap;rounded=0;fontColor=#000000;" parent="1" vertex="1">
          <mxGeometry x="758.81" y="894.5" width="50" height="30" as="geometry" />
        </mxCell>
        <mxCell id="mI0G9RqRu6ml6arS59rm-11" value="" style="ellipse;whiteSpace=wrap;html=1;fillColor=#FFFFFF;direction=south;gradientColor=none;fontColor=#000000;" parent="1" vertex="1">
          <mxGeometry x="1304" y="460.08" width="20" height="20" as="geometry" />
        </mxCell>
        <mxCell id="mI0G9RqRu6ml6arS59rm-14" value="" style="ellipse;whiteSpace=wrap;html=1;fillColor=#FFFFFF;direction=south;gradientColor=none;" parent="1" vertex="1">
          <mxGeometry x="1354.5" y="464.52" width="20" height="20" as="geometry" />
        </mxCell>
        <mxCell id="mI0G9RqRu6ml6arS59rm-16" value="&lt;font style=&quot;font-size: 10px;&quot;&gt;(0,1)&lt;/font&gt;" style="text;html=1;strokeColor=none;fillColor=none;align=center;verticalAlign=middle;whiteSpace=wrap;rounded=0;" parent="1" vertex="1">
          <mxGeometry x="1891.5" y="295" width="50" height="30" as="geometry" />
        </mxCell>
        <mxCell id="mI0G9RqRu6ml6arS59rm-18" value="" style="endArrow=none;html=1;rounded=0;entryX=1;entryY=0;entryDx=0;entryDy=0;fontColor=#000000;" parent="1" source="mI0G9RqRu6ml6arS59rm-23" target="1GqtW3D0vnaD6hVMnLZm-3" edge="1">
          <mxGeometry width="50" height="50" relative="1" as="geometry">
            <mxPoint x="746" y="260" as="sourcePoint" />
            <mxPoint x="696.0000000000002" y="300" as="targetPoint" />
          </mxGeometry>
        </mxCell>
        <mxCell id="mI0G9RqRu6ml6arS59rm-20" value="&lt;span style=&quot;font-size: 18px;&quot;&gt;PartecipaProgFin&lt;/span&gt;" style="text;html=1;strokeColor=none;fillColor=none;align=center;verticalAlign=middle;whiteSpace=wrap;rounded=0;fontColor=#000000;" parent="1" vertex="1">
          <mxGeometry x="786.81" y="225" width="90" height="40" as="geometry" />
        </mxCell>
        <mxCell id="mI0G9RqRu6ml6arS59rm-23" value="" style="ellipse;whiteSpace=wrap;html=1;fillColor=#FFFFFF;direction=south;gradientColor=none;fontColor=#000000;" parent="1" vertex="1">
          <mxGeometry x="780" y="260.69" width="20" height="20" as="geometry" />
        </mxCell>
        <mxCell id="mI0G9RqRu6ml6arS59rm-25" value="FA PARTE" style="rhombus;whiteSpace=wrap;html=1;" parent="1" vertex="1">
          <mxGeometry x="1572.5" y="530" width="80" height="80" as="geometry" />
        </mxCell>
        <mxCell id="mI0G9RqRu6ml6arS59rm-26" value="" style="endArrow=none;html=1;rounded=0;entryX=1;entryY=0.5;entryDx=0;entryDy=0;exitX=0.25;exitY=1;exitDx=0;exitDy=0;" parent="1" source="1GqtW3D0vnaD6hVMnLZm-1" target="mI0G9RqRu6ml6arS59rm-25" edge="1">
          <mxGeometry width="50" height="50" relative="1" as="geometry">
            <mxPoint x="1752.5" y="380" as="sourcePoint" />
            <mxPoint x="1668.41" y="600" as="targetPoint" />
            <Array as="points">
              <mxPoint x="1762.5" y="570" />
            </Array>
          </mxGeometry>
        </mxCell>
        <mxCell id="mI0G9RqRu6ml6arS59rm-31" value="E&#39; RIFERIMENTO" style="rhombus;whiteSpace=wrap;html=1;fontColor=#000000;" parent="1" vertex="1">
          <mxGeometry x="876.81" y="450" width="80" height="80" as="geometry" />
        </mxCell>
        <mxCell id="mI0G9RqRu6ml6arS59rm-32" value="" style="endArrow=none;html=1;rounded=0;exitX=0;exitY=0.25;exitDx=0;exitDy=0;entryX=1;entryY=0.5;entryDx=0;entryDy=0;fontColor=#000000;" parent="1" source="1GqtW3D0vnaD6hVMnLZm-8" target="mI0G9RqRu6ml6arS59rm-31" edge="1">
          <mxGeometry width="50" height="50" relative="1" as="geometry">
            <mxPoint x="1088.5" y="420" as="sourcePoint" />
            <mxPoint x="952.5" y="490" as="targetPoint" />
            <Array as="points">
              <mxPoint x="1112.5" y="570" />
              <mxPoint x="1112.5" y="490" />
            </Array>
          </mxGeometry>
        </mxCell>
        <mxCell id="mI0G9RqRu6ml6arS59rm-33" value="" style="endArrow=none;html=1;rounded=0;exitX=0.935;exitY=1.01;exitDx=0;exitDy=0;entryX=0;entryY=0.5;entryDx=0;entryDy=0;exitPerimeter=0;fontColor=#000000;" parent="1" source="1GqtW3D0vnaD6hVMnLZm-3" target="mI0G9RqRu6ml6arS59rm-31" edge="1">
          <mxGeometry width="50" height="50" relative="1" as="geometry">
            <mxPoint x="697.5" y="576" as="sourcePoint" />
            <mxPoint x="771.3200000000002" y="586" as="targetPoint" />
            <Array as="points">
              <mxPoint x="732.5" y="490" />
            </Array>
          </mxGeometry>
        </mxCell>
        <mxCell id="mI0G9RqRu6ml6arS59rm-34" value="&lt;font style=&quot;font-size: 14px;&quot;&gt;(1,1)&lt;/font&gt;" style="text;html=1;strokeColor=none;fillColor=none;align=center;verticalAlign=middle;whiteSpace=wrap;rounded=0;" parent="1" vertex="1">
          <mxGeometry x="1372" y="530" width="46" height="20" as="geometry" />
        </mxCell>
        <mxCell id="mI0G9RqRu6ml6arS59rm-36" value="&lt;font style=&quot;font-size: 14px;&quot;&gt;(1,N)&lt;/font&gt;" style="text;html=1;strokeColor=none;fillColor=none;align=center;verticalAlign=middle;whiteSpace=wrap;rounded=0;" parent="1" vertex="1">
          <mxGeometry x="1716.5" y="410" width="46" height="20" as="geometry" />
        </mxCell>
        <mxCell id="mI0G9RqRu6ml6arS59rm-39" value="" style="ellipse;whiteSpace=wrap;html=1;fillColor=#000000;direction=south;fontColor=#000000;" parent="1" vertex="1">
          <mxGeometry x="992.5" y="530" width="20" height="20" as="geometry" />
        </mxCell>
        <mxCell id="mI0G9RqRu6ml6arS59rm-44" value="SPECIE" style="rounded=0;whiteSpace=wrap;html=1;" parent="1" vertex="1">
          <mxGeometry x="1203" y="1297" width="160" height="80" as="geometry" />
        </mxCell>
        <mxCell id="mI0G9RqRu6ml6arS59rm-46" value="&lt;span style=&quot;font-size: 18px;&quot;&gt;Scopo&lt;/span&gt;" style="text;html=1;strokeColor=none;fillColor=none;align=center;verticalAlign=middle;whiteSpace=wrap;rounded=0;" parent="1" vertex="1">
          <mxGeometry x="1442.5" y="1315" width="50" height="30" as="geometry" />
        </mxCell>
        <mxCell id="mI0G9RqRu6ml6arS59rm-47" value="" style="endArrow=none;html=1;rounded=0;entryX=0.194;entryY=-0.012;entryDx=0;entryDy=0;entryPerimeter=0;fontColor=#000000;" parent="1" source="mI0G9RqRu6ml6arS59rm-61" target="mI0G9RqRu6ml6arS59rm-44" edge="1">
          <mxGeometry width="50" height="50" relative="1" as="geometry">
            <mxPoint x="1199" y="1290" as="sourcePoint" />
            <mxPoint x="1222.5" y="1300" as="targetPoint" />
          </mxGeometry>
        </mxCell>
        <mxCell id="mI0G9RqRu6ml6arS59rm-56" value="" style="endArrow=none;html=1;rounded=0;" parent="1" source="mI0G9RqRu6ml6arS59rm-57" target="mI0G9RqRu6ml6arS59rm-44" edge="1">
          <mxGeometry width="50" height="50" relative="1" as="geometry">
            <mxPoint x="1389.75" y="1327" as="sourcePoint" />
            <mxPoint x="1382.25" y="1347" as="targetPoint" />
          </mxGeometry>
        </mxCell>
        <mxCell id="mI0G9RqRu6ml6arS59rm-57" value="" style="ellipse;whiteSpace=wrap;html=1;fillColor=#FFFFFF;direction=south;gradientColor=none;" parent="1" vertex="1">
          <mxGeometry x="1412.75" y="1315" width="20" height="20" as="geometry" />
        </mxCell>
        <mxCell id="mI0G9RqRu6ml6arS59rm-60" value="" style="endArrow=none;html=1;rounded=0;fontColor=#000000;" parent="1" source="mI0G9RqRu6ml6arS59rm-70" target="mI0G9RqRu6ml6arS59rm-44" edge="1">
          <mxGeometry width="50" height="50" relative="1" as="geometry">
            <mxPoint x="1179" y="1400" as="sourcePoint" />
            <mxPoint x="1222.0600000000004" y="1363.04" as="targetPoint" />
          </mxGeometry>
        </mxCell>
        <mxCell id="mI0G9RqRu6ml6arS59rm-61" value="" style="ellipse;whiteSpace=wrap;html=1;fillColor=#000000;direction=south;gradientColor=none;fontColor=#000000;" parent="1" vertex="1">
          <mxGeometry x="1183.5" y="1266.5" width="20" height="20" as="geometry" />
        </mxCell>
        <mxCell id="mI0G9RqRu6ml6arS59rm-62" value="&lt;span style=&quot;font-size: 18px;&quot;&gt;NomeComune&lt;/span&gt;" style="text;html=1;strokeColor=none;fillColor=none;align=center;verticalAlign=middle;whiteSpace=wrap;rounded=0;fontColor=#000000;" parent="1" vertex="1">
          <mxGeometry x="1062.5" y="1345" width="65" height="30" as="geometry" />
        </mxCell>
        <mxCell id="mI0G9RqRu6ml6arS59rm-63" value="&lt;span style=&quot;font-size: 18px;&quot;&gt;NomeScientifico&lt;/span&gt;" style="text;html=1;strokeColor=none;fillColor=none;align=center;verticalAlign=middle;whiteSpace=wrap;rounded=0;fontColor=#000000;" parent="1" vertex="1">
          <mxGeometry x="1082.5" y="1260" width="65" height="30" as="geometry" />
        </mxCell>
        <mxCell id="mI0G9RqRu6ml6arS59rm-68" value="&lt;font style=&quot;font-size: 14px;&quot;&gt;(&lt;font&gt;0&lt;/font&gt;,&lt;font&gt;1&lt;/font&gt;)&lt;/font&gt;" style="text;html=1;strokeColor=none;fillColor=none;align=center;verticalAlign=middle;whiteSpace=wrap;rounded=0;fontColor=#000000;" parent="1" vertex="1">
          <mxGeometry x="731.5" y="400" width="46" height="20" as="geometry" />
        </mxCell>
        <mxCell id="mI0G9RqRu6ml6arS59rm-69" value="&lt;font style=&quot;font-size: 14px;&quot;&gt;(1,1)&lt;/font&gt;" style="text;html=1;strokeColor=none;fillColor=none;align=center;verticalAlign=middle;whiteSpace=wrap;rounded=0;fontColor=#000000;" parent="1" vertex="1">
          <mxGeometry x="1157.5" y="530" width="46" height="20" as="geometry" />
        </mxCell>
        <mxCell id="mI0G9RqRu6ml6arS59rm-70" value="" style="ellipse;whiteSpace=wrap;html=1;fillColor=#FFFFFF;direction=south;gradientColor=none;fontColor=#000000;" parent="1" vertex="1">
          <mxGeometry x="1154" y="1350" width="20" height="20" as="geometry" />
        </mxCell>
        <mxCell id="mI0G9RqRu6ml6arS59rm-73" value="GESTISCE" style="rhombus;whiteSpace=wrap;html=1;fontColor=#000000;" parent="1" vertex="1">
          <mxGeometry x="1251.5" y="704.5" width="80" height="80" as="geometry" />
        </mxCell>
        <mxCell id="mI0G9RqRu6ml6arS59rm-74" value="" style="endArrow=none;html=1;rounded=0;entryX=0.5;entryY=0;entryDx=0;entryDy=0;fontColor=#000000;" parent="1" source="1GqtW3D0vnaD6hVMnLZm-8" target="mI0G9RqRu6ml6arS59rm-73" edge="1">
          <mxGeometry width="50" height="50" relative="1" as="geometry">
            <mxPoint x="1244.5" y="615.9999999999998" as="sourcePoint" />
            <mxPoint x="1557.41" y="829" as="targetPoint" />
          </mxGeometry>
        </mxCell>
        <mxCell id="mI0G9RqRu6ml6arS59rm-75" value="" style="endArrow=none;html=1;rounded=0;entryX=0.5;entryY=1;entryDx=0;entryDy=0;fontColor=#000000;" parent="1" source="1GqtW3D0vnaD6hVMnLZm-21" target="mI0G9RqRu6ml6arS59rm-73" edge="1">
          <mxGeometry width="50" height="50" relative="1" as="geometry">
            <mxPoint x="1256.5" y="940" as="sourcePoint" />
            <mxPoint x="1294.3200000000002" y="795" as="targetPoint" />
          </mxGeometry>
        </mxCell>
        <mxCell id="mI0G9RqRu6ml6arS59rm-76" value="&lt;font style=&quot;font-size: 14px;&quot;&gt;(1,1)&lt;/font&gt;" style="text;html=1;strokeColor=none;fillColor=none;align=center;verticalAlign=middle;whiteSpace=wrap;rounded=0;" parent="1" vertex="1">
          <mxGeometry x="1341.5" y="639" width="46" height="20" as="geometry" />
        </mxCell>
        <mxCell id="mI0G9RqRu6ml6arS59rm-77" value="&lt;font style=&quot;font-size: 14px;&quot;&gt;(1,1)&lt;/font&gt;" style="text;html=1;strokeColor=none;fillColor=none;align=center;verticalAlign=middle;whiteSpace=wrap;rounded=0;fontColor=#000000;" parent="1" vertex="1">
          <mxGeometry x="1251.5" y="935.5" width="46" height="20" as="geometry" />
        </mxCell>
        <mxCell id="mI0G9RqRu6ml6arS59rm-79" value="" style="ellipse;whiteSpace=wrap;html=1;fillColor=#000000;direction=south;gradientColor=none;" parent="1" vertex="1">
          <mxGeometry x="1323" y="859.5" width="20" height="20" as="geometry" />
        </mxCell>
        <mxCell id="mI0G9RqRu6ml6arS59rm-86" value="HA" style="rhombus;whiteSpace=wrap;html=1;" parent="1" vertex="1">
          <mxGeometry x="1782.5" y="530" width="80" height="80" as="geometry" />
        </mxCell>
        <mxCell id="mI0G9RqRu6ml6arS59rm-87" value="" style="endArrow=none;html=1;rounded=0;exitX=0.5;exitY=0;exitDx=0;exitDy=0;" parent="1" source="mI0G9RqRu6ml6arS59rm-86" edge="1">
          <mxGeometry width="50" height="50" relative="1" as="geometry">
            <mxPoint x="2002" y="498" as="sourcePoint" />
            <mxPoint x="1822.5" y="400" as="targetPoint" />
          </mxGeometry>
        </mxCell>
        <mxCell id="mI0G9RqRu6ml6arS59rm-88" value="" style="endArrow=none;html=1;rounded=0;exitX=0.5;exitY=1;exitDx=0;exitDy=0;entryX=0.5;entryY=0;entryDx=0;entryDy=0;" parent="1" source="mI0G9RqRu6ml6arS59rm-86" target="1GqtW3D0vnaD6hVMnLZm-12" edge="1">
          <mxGeometry width="50" height="50" relative="1" as="geometry">
            <mxPoint x="1611" y="654" as="sourcePoint" />
            <mxPoint x="1822.5" y="730" as="targetPoint" />
          </mxGeometry>
        </mxCell>
        <mxCell id="mI0G9RqRu6ml6arS59rm-89" value="&lt;font style=&quot;font-size: 14px;&quot;&gt;(1,1)&lt;/font&gt;" style="text;html=1;strokeColor=none;fillColor=none;align=center;verticalAlign=middle;whiteSpace=wrap;rounded=0;" parent="1" vertex="1">
          <mxGeometry x="1826.5" y="659" width="46" height="20" as="geometry" />
        </mxCell>
        <mxCell id="mI0G9RqRu6ml6arS59rm-90" value="&lt;font style=&quot;font-size: 14px;&quot;&gt;(1,N)&lt;/font&gt;" style="text;html=1;strokeColor=none;fillColor=none;align=center;verticalAlign=middle;whiteSpace=wrap;rounded=0;" parent="1" vertex="1">
          <mxGeometry x="1822.5" y="418" width="46" height="20" as="geometry" />
        </mxCell>
        <mxCell id="mI0G9RqRu6ml6arS59rm-91" value="&lt;font style=&quot;font-size: 14px;&quot;&gt;(1,N)&lt;/font&gt;" style="text;html=1;strokeColor=none;fillColor=none;align=center;verticalAlign=middle;whiteSpace=wrap;rounded=0;" parent="1" vertex="1">
          <mxGeometry x="1673.5" y="330" width="46" height="20" as="geometry" />
        </mxCell>
        <mxCell id="mI0G9RqRu6ml6arS59rm-95" value="APPARTIENE" style="rhombus;whiteSpace=wrap;html=1;fontColor=#000000;" parent="1" vertex="1">
          <mxGeometry x="1243" y="1141.5" width="80" height="80" as="geometry" />
        </mxCell>
        <mxCell id="mI0G9RqRu6ml6arS59rm-96" value="" style="endArrow=none;html=1;rounded=0;exitX=0.5;exitY=0;exitDx=0;exitDy=0;fontColor=#000000;entryX=0.446;entryY=0.992;entryDx=0;entryDy=0;entryPerimeter=0;" parent="1" source="mI0G9RqRu6ml6arS59rm-95" target="1GqtW3D0vnaD6hVMnLZm-21" edge="1">
          <mxGeometry width="50" height="50" relative="1" as="geometry">
            <mxPoint x="1292.5" y="1120" as="sourcePoint" />
            <mxPoint x="1282.5" y="1050" as="targetPoint" />
          </mxGeometry>
        </mxCell>
        <mxCell id="mI0G9RqRu6ml6arS59rm-97" value="" style="endArrow=none;html=1;rounded=0;entryX=0.5;entryY=0;entryDx=0;entryDy=0;exitX=0.5;exitY=1;exitDx=0;exitDy=0;fontColor=#000000;" parent="1" source="mI0G9RqRu6ml6arS59rm-95" target="mI0G9RqRu6ml6arS59rm-44" edge="1">
          <mxGeometry width="50" height="50" relative="1" as="geometry">
            <mxPoint x="1291.5" y="1200" as="sourcePoint" />
            <mxPoint x="1282.5" y="1300" as="targetPoint" />
          </mxGeometry>
        </mxCell>
        <mxCell id="mI0G9RqRu6ml6arS59rm-98" value="&lt;font style=&quot;font-size: 14px;&quot;&gt;(&lt;font&gt;0&lt;/font&gt;,N)&lt;/font&gt;" style="text;html=1;strokeColor=none;fillColor=none;align=center;verticalAlign=middle;whiteSpace=wrap;rounded=0;fontColor=#000000;" parent="1" vertex="1">
          <mxGeometry x="1308.5" y="1270" width="46" height="20" as="geometry" />
        </mxCell>
        <mxCell id="mI0G9RqRu6ml6arS59rm-99" value="&lt;font style=&quot;font-size: 14px;&quot;&gt;(1,1)&lt;/font&gt;" style="text;html=1;strokeColor=none;fillColor=none;align=center;verticalAlign=middle;whiteSpace=wrap;rounded=0;fontColor=#000000;" parent="1" vertex="1">
          <mxGeometry x="1285.5" y="1081" width="46" height="20" as="geometry" />
        </mxCell>
        <mxCell id="mI0G9RqRu6ml6arS59rm-109" value="" style="endArrow=none;html=1;rounded=0;entryX=0.654;entryY=-0.028;entryDx=0;entryDy=0;entryPerimeter=0;" parent="1" source="mI0G9RqRu6ml6arS59rm-110" target="1GqtW3D0vnaD6hVMnLZm-21" edge="1">
          <mxGeometry width="50" height="50" relative="1" as="geometry">
            <mxPoint x="1350.16" y="972" as="sourcePoint" />
            <mxPoint x="1371.5" y="1014" as="targetPoint" />
          </mxGeometry>
        </mxCell>
        <mxCell id="mI0G9RqRu6ml6arS59rm-110" value="" style="ellipse;whiteSpace=wrap;html=1;fillColor=#FFFFFF;direction=south;gradientColor=none;" parent="1" vertex="1">
          <mxGeometry x="1324" y="914.5" width="20" height="20" as="geometry" />
        </mxCell>
        <mxCell id="mI0G9RqRu6ml6arS59rm-111" value="&lt;span style=&quot;font-size: 18px;&quot;&gt;Esposizione&lt;/span&gt;" style="text;html=1;strokeColor=none;fillColor=none;align=center;verticalAlign=middle;whiteSpace=wrap;rounded=0;" parent="1" vertex="1">
          <mxGeometry x="1371.5" y="904.5" width="50" height="30" as="geometry" />
        </mxCell>
        <mxCell id="mI0G9RqRu6ml6arS59rm-112" value="E&#39; CONTENUTA" style="rhombus;whiteSpace=wrap;html=1;" parent="1" vertex="1">
          <mxGeometry x="1603.5" y="1101.5" width="80" height="80" as="geometry" />
        </mxCell>
        <mxCell id="mI0G9RqRu6ml6arS59rm-113" value="" style="endArrow=none;html=1;rounded=0;entryX=1;entryY=0.5;entryDx=0;entryDy=0;exitX=0;exitY=0.5;exitDx=0;exitDy=0;" parent="1" source="mI0G9RqRu6ml6arS59rm-112" edge="1">
          <mxGeometry width="50" height="50" relative="1" as="geometry">
            <mxPoint x="1541" y="1053.4999999999998" as="sourcePoint" />
            <mxPoint x="1371.5" y="1053.4999999999998" as="targetPoint" />
            <Array as="points">
              <mxPoint x="1450" y="1140" />
              <mxPoint x="1450" y="1053" />
            </Array>
          </mxGeometry>
        </mxCell>
        <mxCell id="mI0G9RqRu6ml6arS59rm-114" value="" style="endArrow=none;html=1;rounded=0;exitX=1;exitY=0.5;exitDx=0;exitDy=0;entryX=0.5;entryY=1;entryDx=0;entryDy=0;" parent="1" source="mI0G9RqRu6ml6arS59rm-112" target="FwptbRE5Cjejp8aSv0t5-5" edge="1">
          <mxGeometry width="50" height="50" relative="1" as="geometry">
            <mxPoint x="1610" y="1153.05" as="sourcePoint" />
            <mxPoint x="1742.5" y="1093.5029411764706" as="targetPoint" />
            <Array as="points">
              <mxPoint x="1823" y="1140" />
            </Array>
          </mxGeometry>
        </mxCell>
        <mxCell id="mI0G9RqRu6ml6arS59rm-135" value="RELATIVA" style="rhombus;whiteSpace=wrap;html=1;fontColor=#000000;" parent="1" vertex="1">
          <mxGeometry x="856.81" y="1011" width="80" height="80" as="geometry" />
        </mxCell>
        <mxCell id="mI0G9RqRu6ml6arS59rm-136" value="" style="endArrow=none;html=1;rounded=0;exitX=0;exitY=0.5;exitDx=0;exitDy=0;fontColor=#000000;" parent="1" source="mI0G9RqRu6ml6arS59rm-135" edge="1">
          <mxGeometry width="50" height="50" relative="1" as="geometry">
            <mxPoint x="1122.5" y="880.5" as="sourcePoint" />
            <mxPoint x="572.5" y="800" as="targetPoint" />
            <Array as="points">
              <mxPoint x="733" y="1050" />
              <mxPoint x="732.5" y="800" />
            </Array>
          </mxGeometry>
        </mxCell>
        <mxCell id="mI0G9RqRu6ml6arS59rm-137" value="" style="endArrow=none;html=1;rounded=0;fontColor=#000000;exitX=1;exitY=0.5;exitDx=0;exitDy=0;" parent="1" source="mI0G9RqRu6ml6arS59rm-135" edge="1">
          <mxGeometry width="50" height="50" relative="1" as="geometry">
            <mxPoint x="672.5" y="960" as="sourcePoint" />
            <mxPoint x="1210" y="1050" as="targetPoint" />
            <Array as="points">
              <mxPoint x="1133" y="1050" />
            </Array>
          </mxGeometry>
        </mxCell>
        <mxCell id="mI0G9RqRu6ml6arS59rm-138" value="È" style="rhombus;whiteSpace=wrap;html=1;fontColor=#000000;" parent="1" vertex="1">
          <mxGeometry x="612.5" y="484.44000000000005" width="80" height="80" as="geometry" />
        </mxCell>
        <mxCell id="mI0G9RqRu6ml6arS59rm-139" value="" style="endArrow=none;html=1;rounded=0;exitX=0.5;exitY=0;exitDx=0;exitDy=0;fontColor=#000000;" parent="1" source="mI0G9RqRu6ml6arS59rm-138" edge="1">
          <mxGeometry width="50" height="50" relative="1" as="geometry">
            <mxPoint x="739.5" y="432.5" as="sourcePoint" />
            <mxPoint x="652.5" y="400" as="targetPoint" />
          </mxGeometry>
        </mxCell>
        <mxCell id="mI0G9RqRu6ml6arS59rm-143" value="INSERISCE" style="rhombus;whiteSpace=wrap;html=1;fontColor=#000000;" parent="1" vertex="1">
          <mxGeometry x="761.81" y="720" width="80" height="80" as="geometry" />
        </mxCell>
        <mxCell id="mI0G9RqRu6ml6arS59rm-151" value="ASSOCIATO A&amp;nbsp;" style="rhombus;whiteSpace=wrap;html=1;fontColor=#000000;" parent="1" vertex="1">
          <mxGeometry x="1032.5" y="923.5" width="80" height="80" as="geometry" />
        </mxCell>
        <mxCell id="mI0G9RqRu6ml6arS59rm-152" value="" style="endArrow=none;html=1;rounded=0;fontColor=#000000;exitX=0.5;exitY=0;exitDx=0;exitDy=0;entryX=1;entryY=0.439;entryDx=0;entryDy=0;entryPerimeter=0;" parent="1" source="mI0G9RqRu6ml6arS59rm-151" target="9_35HUgDkUIat2iefjqO-9" edge="1">
          <mxGeometry width="50" height="50" relative="1" as="geometry">
            <mxPoint x="1110" y="900" as="sourcePoint" />
            <mxPoint x="1020" y="880" as="targetPoint" />
            <Array as="points">
              <mxPoint x="1073" y="890" />
            </Array>
          </mxGeometry>
        </mxCell>
        <mxCell id="mI0G9RqRu6ml6arS59rm-153" value="" style="endArrow=none;html=1;rounded=0;fontColor=#000000;entryX=0;entryY=0.25;entryDx=0;entryDy=0;exitX=0.5;exitY=1;exitDx=0;exitDy=0;" parent="1" source="mI0G9RqRu6ml6arS59rm-151" target="1GqtW3D0vnaD6hVMnLZm-21" edge="1">
          <mxGeometry width="50" height="50" relative="1" as="geometry">
            <mxPoint x="1072.5" y="1009" as="sourcePoint" />
            <mxPoint x="834.45" y="1425" as="targetPoint" />
            <Array as="points">
              <mxPoint x="1072.5" y="1010" />
              <mxPoint x="1112.5" y="1009" />
            </Array>
          </mxGeometry>
        </mxCell>
        <mxCell id="mI0G9RqRu6ml6arS59rm-159" value="&lt;font style=&quot;font-size: 14px;&quot;&gt;(1,1)&lt;/font&gt;" style="text;html=1;strokeColor=none;fillColor=none;align=center;verticalAlign=middle;whiteSpace=wrap;rounded=0;fontColor=#000000;" parent="1" vertex="1">
          <mxGeometry x="585" y="810" width="46" height="20" as="geometry" />
        </mxCell>
        <mxCell id="mI0G9RqRu6ml6arS59rm-160" value="&lt;font style=&quot;font-size: 14px;&quot;&gt;(0,N)&lt;/font&gt;" style="text;html=1;strokeColor=none;fillColor=none;align=center;verticalAlign=middle;whiteSpace=wrap;rounded=0;fontColor=#000000;" parent="1" vertex="1">
          <mxGeometry x="1160.5" y="1053.5" width="46" height="20" as="geometry" />
        </mxCell>
        <mxCell id="mI0G9RqRu6ml6arS59rm-161" value="&lt;font style=&quot;font-size: 14px;&quot;&gt;(1,N)&lt;/font&gt;" style="text;html=1;strokeColor=none;fillColor=none;align=center;verticalAlign=middle;whiteSpace=wrap;rounded=0;fontColor=#000000;" parent="1" vertex="1">
          <mxGeometry x="1016.81" y="899.5" width="46" height="20" as="geometry" />
        </mxCell>
        <mxCell id="mI0G9RqRu6ml6arS59rm-164" value="" style="ellipse;whiteSpace=wrap;html=1;fillColor=#000000;direction=south;gradientColor=none;fontColor=#000000;" parent="1" vertex="1">
          <mxGeometry x="821.81" y="899.5" width="20" height="20" as="geometry" />
        </mxCell>
        <mxCell id="mI0G9RqRu6ml6arS59rm-170" value="&lt;font style=&quot;font-size: 14px;&quot;&gt;(1,1)&lt;/font&gt;" style="text;html=1;strokeColor=none;fillColor=none;align=center;verticalAlign=middle;whiteSpace=wrap;rounded=0;fontColor=#000000;" parent="1" vertex="1">
          <mxGeometry x="1139.5" y="984.5" width="46" height="20" as="geometry" />
        </mxCell>
        <mxCell id="mI0G9RqRu6ml6arS59rm-171" value="&lt;font style=&quot;font-size: 14px;&quot;&gt;(1,1)&lt;/font&gt;" style="text;html=1;strokeColor=none;fillColor=none;align=center;verticalAlign=middle;whiteSpace=wrap;rounded=0;" parent="1" vertex="1">
          <mxGeometry x="1386.5" y="1056" width="46" height="20" as="geometry" />
        </mxCell>
        <mxCell id="mI0G9RqRu6ml6arS59rm-172" value="&lt;font style=&quot;font-size: 14px;&quot;&gt;(1,N)&lt;/font&gt;" style="text;html=1;strokeColor=none;fillColor=none;align=center;verticalAlign=middle;whiteSpace=wrap;rounded=0;" parent="1" vertex="1">
          <mxGeometry x="1823" y="1114" width="46" height="20" as="geometry" />
        </mxCell>
        <mxCell id="3pxgKF3K3UY6ERB2-cvl-1" value="" style="endArrow=none;html=1;rounded=0;fontColor=#000000;" parent="1" source="mI0G9RqRu6ml6arS59rm-79" edge="1">
          <mxGeometry width="50" height="50" relative="1" as="geometry">
            <mxPoint x="1324.5" y="868" as="sourcePoint" />
            <mxPoint x="1322.5" y="660" as="targetPoint" />
            <Array as="points">
              <mxPoint x="1232.5" y="870" />
              <mxPoint x="1232.5" y="660" />
            </Array>
          </mxGeometry>
        </mxCell>
        <mxCell id="3pxgKF3K3UY6ERB2-cvl-4" value="" style="endArrow=none;html=1;rounded=0;fontColor=#000000;" parent="1" edge="1">
          <mxGeometry width="50" height="50" relative="1" as="geometry">
            <mxPoint x="812.5" y="530" as="sourcePoint" />
            <mxPoint x="1002.5" y="530" as="targetPoint" />
            <Array as="points">
              <mxPoint x="812.5" y="430" />
              <mxPoint x="1002.5" y="430" />
            </Array>
          </mxGeometry>
        </mxCell>
        <mxCell id="PH95ImstwBu5i2bBudpi-1" value="" style="endArrow=none;html=1;rounded=0;fontColor=#000000;" parent="1" edge="1">
          <mxGeometry width="50" height="50" relative="1" as="geometry">
            <mxPoint x="502.5" y="910" as="sourcePoint" />
            <mxPoint x="502.5" y="824.5" as="targetPoint" />
          </mxGeometry>
        </mxCell>
        <mxCell id="PH95ImstwBu5i2bBudpi-3" value="INERENTE" style="rhombus;whiteSpace=wrap;html=1;fontColor=#000000;" parent="1" vertex="1">
          <mxGeometry x="462.5" y="909.5" width="80" height="80" as="geometry" />
        </mxCell>
        <mxCell id="PH95ImstwBu5i2bBudpi-4" value="" style="endArrow=none;html=1;rounded=0;entryX=0.5;entryY=1;entryDx=0;entryDy=0;exitX=0.534;exitY=0.006;exitDx=0;exitDy=0;exitPerimeter=0;fontColor=#000000;" parent="1" source="PH95ImstwBu5i2bBudpi-6" target="PH95ImstwBu5i2bBudpi-3" edge="1">
          <mxGeometry width="50" height="50" relative="1" as="geometry">
            <mxPoint x="505" y="1104" as="sourcePoint" />
            <mxPoint x="505" y="1042.5" as="targetPoint" />
          </mxGeometry>
        </mxCell>
        <mxCell id="9Q-TVP5sQ0k48pNDZRx9-20" value="" style="endArrow=none;html=1;rounded=0;entryX=0.627;entryY=1.014;entryDx=0;entryDy=0;entryPerimeter=0;fontColor=#000000;" parent="1" source="xbkp54h4-bro_WAhH61t-56" target="PH95ImstwBu5i2bBudpi-6" edge="1">
          <mxGeometry width="50" height="50" relative="1" as="geometry">
            <mxPoint x="567" y="1278" as="sourcePoint" />
            <mxPoint x="528.5150000000001" y="1164.84" as="targetPoint" />
          </mxGeometry>
        </mxCell>
        <mxCell id="9Q-TVP5sQ0k48pNDZRx9-23" value="" style="endArrow=none;html=1;rounded=0;exitX=0.18;exitY=0.011;exitDx=0;exitDy=0;exitPerimeter=0;fontColor=#000000;" parent="1" source="PH95ImstwBu5i2bBudpi-6" target="9Q-TVP5sQ0k48pNDZRx9-22" edge="1">
          <mxGeometry width="50" height="50" relative="1" as="geometry">
            <mxPoint x="445" y="1104" as="sourcePoint" />
            <mxPoint x="445" y="1044" as="targetPoint" />
          </mxGeometry>
        </mxCell>
        <mxCell id="9Q-TVP5sQ0k48pNDZRx9-22" value="" style="ellipse;whiteSpace=wrap;html=1;aspect=fixed;fillColor=#000000;fontColor=#000000;" parent="1" vertex="1">
          <mxGeometry x="425" y="1043.5" width="20" height="20" as="geometry" />
        </mxCell>
        <mxCell id="9Q-TVP5sQ0k48pNDZRx9-25" value="&lt;span style=&quot;font-size: 18px;&quot;&gt;CodInfo&lt;/span&gt;" style="text;html=1;strokeColor=none;fillColor=none;align=center;verticalAlign=middle;whiteSpace=wrap;rounded=0;fontColor=#000000;" parent="1" vertex="1">
          <mxGeometry x="405" y="1021" width="45" height="25" as="geometry" />
        </mxCell>
        <mxCell id="9Q-TVP5sQ0k48pNDZRx9-26" value="" style="endArrow=none;html=1;rounded=0;fontColor=#000000;" parent="1" source="xbkp54h4-bro_WAhH61t-54" target="PH95ImstwBu5i2bBudpi-6" edge="1">
          <mxGeometry width="50" height="50" relative="1" as="geometry">
            <mxPoint x="515" y="1290" as="sourcePoint" />
            <mxPoint x="508.75" y="1164" as="targetPoint" />
          </mxGeometry>
        </mxCell>
        <mxCell id="PH95ImstwBu5i2bBudpi-6" value="INFOAMBIENTALI" style="rounded=0;whiteSpace=wrap;html=1;fontColor=#000000;" parent="1" vertex="1">
          <mxGeometry x="417.5" y="1104" width="160" height="80" as="geometry" />
        </mxCell>
        <mxCell id="9Q-TVP5sQ0k48pNDZRx9-28" value="&lt;font style=&quot;font-size: 14px;&quot;&gt;(1,&lt;font&gt;1&lt;/font&gt;)&lt;/font&gt;" style="text;html=1;strokeColor=none;fillColor=none;align=center;verticalAlign=middle;whiteSpace=wrap;rounded=0;fontColor=#000000;" parent="1" vertex="1">
          <mxGeometry x="455" y="830" width="46" height="20" as="geometry" />
        </mxCell>
        <mxCell id="9Q-TVP5sQ0k48pNDZRx9-29" value="&lt;font style=&quot;font-size: 14px;&quot;&gt;(1,1)&lt;/font&gt;" style="text;html=1;strokeColor=none;fillColor=none;align=center;verticalAlign=middle;whiteSpace=wrap;rounded=0;fontColor=#000000;" parent="1" vertex="1">
          <mxGeometry x="505" y="1081" width="46" height="20" as="geometry" />
        </mxCell>
        <mxCell id="9Q-TVP5sQ0k48pNDZRx9-39" value="" style="ellipse;whiteSpace=wrap;html=1;fillColor=#FFFFFF;direction=south;gradientColor=none;fontColor=#000000;" parent="1" vertex="1">
          <mxGeometry x="711.5" y="220" width="20" height="20" as="geometry" />
        </mxCell>
        <mxCell id="9Q-TVP5sQ0k48pNDZRx9-40" value="" style="endArrow=none;html=1;rounded=0;exitX=1;exitY=0.5;exitDx=0;exitDy=0;entryX=0;entryY=0;entryDx=0;entryDy=0;fontColor=#000000;" parent="1" source="9Q-TVP5sQ0k48pNDZRx9-39" edge="1">
          <mxGeometry width="50" height="50" relative="1" as="geometry">
            <mxPoint x="711.5" y="259.99999999999994" as="sourcePoint" />
            <mxPoint x="721.5" y="320" as="targetPoint" />
          </mxGeometry>
        </mxCell>
        <mxCell id="9Q-TVP5sQ0k48pNDZRx9-41" value="&lt;span style=&quot;font-size: 18px;&quot;&gt;ReferenteProg&lt;/span&gt;" style="text;html=1;strokeColor=none;fillColor=none;align=center;verticalAlign=middle;whiteSpace=wrap;rounded=0;fontColor=#000000;" parent="1" vertex="1">
          <mxGeometry x="737.5" y="190" width="60" height="40" as="geometry" />
        </mxCell>
        <mxCell id="TkYwy488-u0RMe4aOZgZ-1" value="&lt;font style=&quot;font-size: 10px;&quot;&gt;(0,1)&lt;/font&gt;" style="text;html=1;strokeColor=none;fillColor=none;align=center;verticalAlign=middle;whiteSpace=wrap;rounded=0;fontColor=#000000;" parent="1" vertex="1">
          <mxGeometry x="620" y="280" width="30" height="15" as="geometry" />
        </mxCell>
        <mxCell id="TkYwy488-u0RMe4aOZgZ-6" value="" style="ellipse;whiteSpace=wrap;html=1;fillColor=#FFFFFF;direction=south;gradientColor=none;" parent="1" vertex="1">
          <mxGeometry x="1942.5" y="664" width="20" height="20" as="geometry" />
        </mxCell>
        <mxCell id="TkYwy488-u0RMe4aOZgZ-7" value="&lt;span style=&quot;font-size: 18px;&quot;&gt;AdattoControllo&lt;/span&gt;" style="text;html=1;strokeColor=none;fillColor=none;align=center;verticalAlign=middle;whiteSpace=wrap;rounded=0;" parent="1" vertex="1">
          <mxGeometry x="1961.5" y="659" width="140" height="30" as="geometry" />
        </mxCell>
        <mxCell id="TkYwy488-u0RMe4aOZgZ-8" value="" style="endArrow=none;html=1;rounded=0;exitX=1;exitY=1;exitDx=0;exitDy=0;" parent="1" edge="1" target="TkYwy488-u0RMe4aOZgZ-6">
          <mxGeometry width="50" height="50" relative="1" as="geometry">
            <mxPoint x="1902.5" y="696.5" as="sourcePoint" />
            <mxPoint x="1952.5" y="696.5" as="targetPoint" />
          </mxGeometry>
        </mxCell>
        <mxCell id="1RjLcbqz8yH-gRdYfJaw-1" value="" style="endArrow=none;html=1;rounded=0;fontColor=#000000;" parent="1" source="1RjLcbqz8yH-gRdYfJaw-2" edge="1">
          <mxGeometry width="50" height="50" relative="1" as="geometry">
            <mxPoint x="477.5" y="1022" as="sourcePoint" />
            <mxPoint x="477.5" y="882" as="targetPoint" />
            <Array as="points" />
          </mxGeometry>
        </mxCell>
        <mxCell id="1RjLcbqz8yH-gRdYfJaw-3" value="" style="endArrow=none;html=1;rounded=0;fontColor=#000000;" parent="1" edge="1">
          <mxGeometry width="50" height="50" relative="1" as="geometry">
            <mxPoint x="482.5" y="1030" as="sourcePoint" />
            <mxPoint x="482.5" y="879.5" as="targetPoint" />
            <Array as="points">
              <mxPoint x="548.5" y="1030" />
              <mxPoint x="548.5" y="879.5" />
            </Array>
          </mxGeometry>
        </mxCell>
        <mxCell id="1RjLcbqz8yH-gRdYfJaw-2" value="" style="ellipse;whiteSpace=wrap;html=1;fillColor=#000000;direction=south;gradientColor=none;fontColor=#000000;" parent="1" vertex="1">
          <mxGeometry x="471.25" y="870.5" width="20" height="20" as="geometry" />
        </mxCell>
        <mxCell id="KoG7FEM-wuRYnveiXtvF-3" value="" style="ellipse;whiteSpace=wrap;html=1;fillColor=#000000;direction=south;gradientColor=none;" parent="1" vertex="1">
          <mxGeometry x="1386.5" y="944.5" width="20" height="20" as="geometry" />
        </mxCell>
        <mxCell id="w05VstKfJsAB3csT7oaa-2" value="&lt;font style=&quot;font-size: 14px;&quot;&gt;(&lt;font&gt;0&lt;/font&gt;,&lt;font&gt;1&lt;/font&gt;)&lt;/font&gt;" style="text;html=1;strokeColor=none;fillColor=none;align=center;verticalAlign=middle;whiteSpace=wrap;rounded=0;fontColor=#000000;" parent="1" vertex="1">
          <mxGeometry x="600" y="411.5" width="46" height="20" as="geometry" />
        </mxCell>
        <mxCell id="w05VstKfJsAB3csT7oaa-3" style="edgeStyle=orthogonalEdgeStyle;rounded=0;orthogonalLoop=1;jettySize=auto;html=1;exitX=0.5;exitY=1;exitDx=0;exitDy=0;fontColor=#000000;" parent="1" source="mI0G9RqRu6ml6arS59rm-77" target="mI0G9RqRu6ml6arS59rm-77" edge="1">
          <mxGeometry relative="1" as="geometry" />
        </mxCell>
        <mxCell id="E5qnZj4sspKQvwT1WxYN-2" value="RESPONSABILE" style="rounded=0;whiteSpace=wrap;html=1;fontColor=#000000;" parent="1" vertex="1">
          <mxGeometry x="737.5" y="584" width="160" height="80" as="geometry" />
        </mxCell>
        <mxCell id="E5qnZj4sspKQvwT1WxYN-5" value="" style="endArrow=none;html=1;rounded=0;exitX=0.5;exitY=0;exitDx=0;exitDy=0;entryX=0.401;entryY=1.003;entryDx=0;entryDy=0;entryPerimeter=0;fontColor=#000000;" parent="1" source="mI0G9RqRu6ml6arS59rm-143" target="E5qnZj4sspKQvwT1WxYN-2" edge="1">
          <mxGeometry width="50" height="50" relative="1" as="geometry">
            <mxPoint x="896.81" y="744.5" as="sourcePoint" />
            <mxPoint x="802.5" y="700" as="targetPoint" />
          </mxGeometry>
        </mxCell>
        <mxCell id="E5qnZj4sspKQvwT1WxYN-6" value="" style="endArrow=none;html=1;rounded=0;entryX=0.5;entryY=1;entryDx=0;entryDy=0;exitX=0.004;exitY=0.444;exitDx=0;exitDy=0;exitPerimeter=0;fontColor=#000000;" parent="1" source="E5qnZj4sspKQvwT1WxYN-2" target="mI0G9RqRu6ml6arS59rm-138" edge="1">
          <mxGeometry width="50" height="50" relative="1" as="geometry">
            <mxPoint x="732.5" y="620" as="sourcePoint" />
            <mxPoint x="822.5" y="550" as="targetPoint" />
            <Array as="points">
              <mxPoint x="652.5" y="620" />
            </Array>
          </mxGeometry>
        </mxCell>
        <mxCell id="E5qnZj4sspKQvwT1WxYN-7" value="FA DA" style="rhombus;whiteSpace=wrap;html=1;fontColor=#000000;" parent="1" vertex="1">
          <mxGeometry x="982.5" y="579" width="80" height="80" as="geometry" />
        </mxCell>
        <mxCell id="E5qnZj4sspKQvwT1WxYN-8" value="" style="endArrow=none;html=1;rounded=0;exitX=0;exitY=0.5;exitDx=0;exitDy=0;entryX=1;entryY=0.25;entryDx=0;entryDy=0;fontColor=#000000;" parent="1" source="mI0G9RqRu6ml6arS59rm-143" target="9_35HUgDkUIat2iefjqO-1" edge="1">
          <mxGeometry width="50" height="50" relative="1" as="geometry">
            <mxPoint x="892.5" y="640" as="sourcePoint" />
            <mxPoint x="572.5" y="770" as="targetPoint" />
          </mxGeometry>
        </mxCell>
        <mxCell id="E5qnZj4sspKQvwT1WxYN-9" value="" style="endArrow=none;html=1;rounded=0;exitX=1;exitY=0.25;exitDx=0;exitDy=0;entryX=0;entryY=0.5;entryDx=0;entryDy=0;" parent="1" source="1GqtW3D0vnaD6hVMnLZm-8" target="mI0G9RqRu6ml6arS59rm-25" edge="1">
          <mxGeometry width="50" height="50" relative="1" as="geometry">
            <mxPoint x="1572.5" y="640" as="sourcePoint" />
            <mxPoint x="1622.5" y="590" as="targetPoint" />
          </mxGeometry>
        </mxCell>
        <mxCell id="E5qnZj4sspKQvwT1WxYN-11" value="" style="endArrow=none;html=1;rounded=0;exitX=1;exitY=0.5;exitDx=0;exitDy=0;fontColor=#000000;" parent="1" source="E5qnZj4sspKQvwT1WxYN-7" edge="1">
          <mxGeometry width="50" height="50" relative="1" as="geometry">
            <mxPoint x="1122.5" y="640" as="sourcePoint" />
            <mxPoint x="1212.5" y="620" as="targetPoint" />
          </mxGeometry>
        </mxCell>
        <mxCell id="E5qnZj4sspKQvwT1WxYN-12" value="" style="endArrow=none;html=1;rounded=0;entryX=1.001;entryY=0.448;entryDx=0;entryDy=0;entryPerimeter=0;exitX=0;exitY=0.5;exitDx=0;exitDy=0;fontColor=#000000;" parent="1" source="E5qnZj4sspKQvwT1WxYN-7" target="E5qnZj4sspKQvwT1WxYN-2" edge="1">
          <mxGeometry width="50" height="50" relative="1" as="geometry">
            <mxPoint x="992.5" y="640" as="sourcePoint" />
            <mxPoint x="1042.5" y="590" as="targetPoint" />
          </mxGeometry>
        </mxCell>
        <mxCell id="E5qnZj4sspKQvwT1WxYN-13" value="&lt;font style=&quot;font-size: 14px;&quot;&gt;(&lt;font&gt;0&lt;/font&gt;,&lt;font&gt;1&lt;/font&gt;)&lt;/font&gt;" style="text;html=1;strokeColor=none;fillColor=none;align=center;verticalAlign=middle;whiteSpace=wrap;rounded=0;fontColor=#000000;" parent="1" vertex="1">
          <mxGeometry x="1160.5" y="620" width="46" height="20" as="geometry" />
        </mxCell>
        <mxCell id="_j_PawiXZ5yXBV77aKe5-1" value="&lt;font style=&quot;font-size: 18px;&quot;&gt;CodResp&lt;/font&gt;" style="text;html=1;strokeColor=none;fillColor=none;align=center;verticalAlign=middle;whiteSpace=wrap;rounded=0;fontColor=#000000;" parent="1" vertex="1">
          <mxGeometry x="952.5" y="654" width="60" height="40" as="geometry" />
        </mxCell>
        <mxCell id="_j_PawiXZ5yXBV77aKe5-2" value="" style="endArrow=none;html=1;rounded=0;fontColor=#000000;" parent="1" source="_j_PawiXZ5yXBV77aKe5-4" target="E5qnZj4sspKQvwT1WxYN-2" edge="1">
          <mxGeometry width="50" height="50" relative="1" as="geometry">
            <mxPoint x="1006.81" y="714.5" as="sourcePoint" />
            <mxPoint x="1086.81" y="714.5" as="targetPoint" />
          </mxGeometry>
        </mxCell>
        <mxCell id="_j_PawiXZ5yXBV77aKe5-4" value="" style="ellipse;whiteSpace=wrap;html=1;fillColor=#000000;direction=south;fontColor=#000000;" parent="1" vertex="1">
          <mxGeometry x="916.81" y="664" width="20" height="20" as="geometry" />
        </mxCell>
        <mxCell id="_j_PawiXZ5yXBV77aKe5-6" value="" style="ellipse;whiteSpace=wrap;html=1;fillColor=#FFFFFF;direction=south;gradientColor=none;fontColor=#000000;" parent="1" vertex="1">
          <mxGeometry x="895.84" y="694.5" width="20" height="20" as="geometry" />
        </mxCell>
        <mxCell id="_j_PawiXZ5yXBV77aKe5-7" value="" style="endArrow=none;html=1;rounded=0;fontColor=#000000;" parent="1" source="_j_PawiXZ5yXBV77aKe5-6" target="E5qnZj4sspKQvwT1WxYN-2" edge="1">
          <mxGeometry width="50" height="50" relative="1" as="geometry">
            <mxPoint x="946.81" y="800.5" as="sourcePoint" />
            <mxPoint x="1026.81" y="750.5" as="targetPoint" />
          </mxGeometry>
        </mxCell>
        <mxCell id="_j_PawiXZ5yXBV77aKe5-8" value="&lt;font style=&quot;font-size: 18px;&quot;&gt;Tipo&lt;/font&gt;" style="text;html=1;strokeColor=none;fillColor=none;align=center;verticalAlign=middle;whiteSpace=wrap;rounded=0;fontColor=#000000;" parent="1" vertex="1">
          <mxGeometry x="909.15" y="694.5" width="60" height="40" as="geometry" />
        </mxCell>
        <mxCell id="_j_PawiXZ5yXBV77aKe5-10" value="&lt;font style=&quot;font-size: 14px;&quot;&gt;(0,1)&lt;/font&gt;" style="text;html=1;strokeColor=none;fillColor=none;align=center;verticalAlign=middle;whiteSpace=wrap;rounded=0;fontColor=#000000;" parent="1" vertex="1">
          <mxGeometry x="685.5" y="590" width="46" height="20" as="geometry" />
        </mxCell>
        <mxCell id="_j_PawiXZ5yXBV77aKe5-11" value="&lt;font style=&quot;font-size: 14px;&quot;&gt;(0,1)&lt;/font&gt;" style="text;html=1;strokeColor=none;fillColor=none;align=center;verticalAlign=middle;whiteSpace=wrap;rounded=0;fontColor=#000000;" parent="1" vertex="1">
          <mxGeometry x="897.5" y="590" width="46" height="20" as="geometry" />
        </mxCell>
        <mxCell id="_j_PawiXZ5yXBV77aKe5-12" value="&lt;font style=&quot;font-size: 14px;&quot;&gt;(1,N)&lt;/font&gt;" style="text;html=1;strokeColor=none;fillColor=none;align=center;verticalAlign=middle;whiteSpace=wrap;rounded=0;fontColor=#000000;" parent="1" vertex="1">
          <mxGeometry x="808.81" y="671.5" width="46" height="20" as="geometry" />
        </mxCell>
        <mxCell id="_j_PawiXZ5yXBV77aKe5-13" value="&lt;font style=&quot;font-size: 14px;&quot;&gt;(1,1)&lt;/font&gt;" style="text;html=1;strokeColor=none;fillColor=none;align=center;verticalAlign=middle;whiteSpace=wrap;rounded=0;fontColor=#000000;" parent="1" vertex="1">
          <mxGeometry x="577.75" y="730" width="46" height="20" as="geometry" />
        </mxCell>
        <mxCell id="_j_PawiXZ5yXBV77aKe5-15" value="&lt;font style=&quot;font-size: 18px;&quot;&gt;Nome&lt;/font&gt;" style="text;html=1;strokeColor=none;fillColor=none;align=center;verticalAlign=middle;whiteSpace=wrap;rounded=0;fontColor=#000000;" parent="1" vertex="1">
          <mxGeometry x="1219" y="446.02" width="60" height="30" as="geometry" />
        </mxCell>
        <mxCell id="_j_PawiXZ5yXBV77aKe5-17" value="" style="endArrow=none;html=1;rounded=0;exitX=0.379;exitY=-0.001;exitDx=0;exitDy=0;exitPerimeter=0;fontColor=#000000;" parent="1" target="_j_PawiXZ5yXBV77aKe5-16" edge="1">
          <mxGeometry width="50" height="50" relative="1" as="geometry">
            <mxPoint x="1254.1399999999999" y="549.9999999999998" as="sourcePoint" />
            <mxPoint x="1254" y="480.08" as="targetPoint" />
          </mxGeometry>
        </mxCell>
        <mxCell id="_j_PawiXZ5yXBV77aKe5-16" value="" style="ellipse;whiteSpace=wrap;html=1;fillColor=#FFFFFF;direction=south;gradientColor=none;fontColor=#000000;" parent="1" vertex="1">
          <mxGeometry x="1244.5" y="476.02" width="20" height="20" as="geometry" />
        </mxCell>
        <mxCell id="r8inGVr_WwJaGXvQEFns-1" value="" style="endArrow=none;html=1;rounded=0;" parent="1" target="r8inGVr_WwJaGXvQEFns-2" edge="1">
          <mxGeometry width="50" height="50" relative="1" as="geometry">
            <mxPoint x="1742.5" y="699.9666032596392" as="sourcePoint" />
            <mxPoint x="1743.33" y="803" as="targetPoint" />
          </mxGeometry>
        </mxCell>
        <mxCell id="r8inGVr_WwJaGXvQEFns-2" value="" style="ellipse;whiteSpace=wrap;html=1;fillColor=#000000;direction=south;gradientColor=none;" parent="1" vertex="1">
          <mxGeometry x="1686.5" y="669.5" width="20" height="20" as="geometry" />
        </mxCell>
        <mxCell id="r8inGVr_WwJaGXvQEFns-6" value="&lt;span style=&quot;font-size: 18px;&quot;&gt;CodOrto&lt;/span&gt;" style="text;html=1;strokeColor=none;fillColor=none;align=center;verticalAlign=middle;whiteSpace=wrap;rounded=0;" parent="1" vertex="1">
          <mxGeometry x="1617.5" y="659" width="60" height="40" as="geometry" />
        </mxCell>
        <mxCell id="Talh4ArQNdA6Z7tmoB9T-1" value="&lt;font style=&quot;font-size: 14px;&quot;&gt;(&lt;font&gt;0&lt;/font&gt;,&lt;font&gt;N&lt;/font&gt;)&lt;/font&gt;" style="text;html=1;strokeColor=none;fillColor=none;align=center;verticalAlign=middle;whiteSpace=wrap;rounded=0;fontColor=#000000;" parent="1" vertex="1">
          <mxGeometry x="755.81" y="330" width="46" height="20" as="geometry" />
        </mxCell>
        <mxCell id="tsZb8GcYSQrIt6vStot6-5" value="GESTISCE" style="rhombus;whiteSpace=wrap;html=1;fontColor=#000000;" parent="1" vertex="1">
          <mxGeometry x="462.49999999999994" y="600.5" width="80" height="80" as="geometry" />
        </mxCell>
        <mxCell id="tsZb8GcYSQrIt6vStot6-6" value="" style="endArrow=none;html=1;rounded=0;exitX=1;exitY=0.5;exitDx=0;exitDy=0;entryX=0.001;entryY=0.703;entryDx=0;entryDy=0;entryPerimeter=0;fontColor=#000000;" parent="1" source="tsZb8GcYSQrIt6vStot6-5" target="E5qnZj4sspKQvwT1WxYN-2" edge="1">
          <mxGeometry width="50" height="50" relative="1" as="geometry">
            <mxPoint x="806.5" y="740" as="sourcePoint" />
            <mxPoint x="732.5" y="640" as="targetPoint" />
          </mxGeometry>
        </mxCell>
        <mxCell id="tsZb8GcYSQrIt6vStot6-7" value="" style="endArrow=none;html=1;rounded=0;exitX=0.5;exitY=1;exitDx=0;exitDy=0;fontColor=#000000;" parent="1" source="tsZb8GcYSQrIt6vStot6-5" edge="1">
          <mxGeometry width="50" height="50" relative="1" as="geometry">
            <mxPoint x="587.5" y="662" as="sourcePoint" />
            <mxPoint x="502.5" y="740" as="targetPoint" />
          </mxGeometry>
        </mxCell>
        <mxCell id="tsZb8GcYSQrIt6vStot6-10" value="&lt;font style=&quot;font-size: 14px;&quot;&gt;(1,N)&lt;/font&gt;" style="text;html=1;strokeColor=none;fillColor=none;align=center;verticalAlign=middle;whiteSpace=wrap;rounded=0;fontColor=#000000;" parent="1" vertex="1">
          <mxGeometry x="682.5" y="651.5" width="46" height="20" as="geometry" />
        </mxCell>
        <mxCell id="tsZb8GcYSQrIt6vStot6-11" value="&lt;font style=&quot;font-size: 14px;&quot;&gt;(1,1)&lt;/font&gt;" style="text;html=1;strokeColor=none;fillColor=none;align=center;verticalAlign=middle;whiteSpace=wrap;rounded=0;fontColor=#000000;" parent="1" vertex="1">
          <mxGeometry x="455" y="714.5" width="46" height="20" as="geometry" />
        </mxCell>
        <mxCell id="gezXSLUfsDdxjthVEmDo-2" value="" style="endArrow=none;html=1;rounded=0;fontColor=#000000;entryX=1;entryY=0.75;entryDx=0;entryDy=0;" parent="1" source="gezXSLUfsDdxjthVEmDo-4" target="FwptbRE5Cjejp8aSv0t5-5" edge="1">
          <mxGeometry width="50" height="50" relative="1" as="geometry">
            <mxPoint x="1995.88" y="1083.5" as="sourcePoint" />
            <mxPoint x="1902.5" y="1044.5" as="targetPoint" />
          </mxGeometry>
        </mxCell>
        <mxCell id="gezXSLUfsDdxjthVEmDo-3" value="&lt;span style=&quot;font-size: 18px;&quot;&gt;TipoGruppo&lt;/span&gt;" style="text;html=1;strokeColor=none;fillColor=none;align=center;verticalAlign=middle;whiteSpace=wrap;rounded=0;fontColor=#000000;" parent="1" vertex="1">
          <mxGeometry x="1997.5" y="1056" width="50" height="30" as="geometry" />
        </mxCell>
        <mxCell id="gezXSLUfsDdxjthVEmDo-4" value="" style="ellipse;whiteSpace=wrap;html=1;fillColor=#FFFFFF;direction=south;gradientColor=none;fontColor=#000000;" parent="1" vertex="1">
          <mxGeometry x="1951.5" y="1061" width="20" height="20" as="geometry" />
        </mxCell>
        <mxCell id="FwptbRE5Cjejp8aSv0t5-5" value="GRUPPO" style="rounded=0;whiteSpace=wrap;html=1;" parent="1" vertex="1">
          <mxGeometry x="1742.5" y="1013.5" width="160" height="80" as="geometry" />
        </mxCell>
        <mxCell id="FwptbRE5Cjejp8aSv0t5-6" value="E&#39; LOCALIZZATO" style="rhombus;whiteSpace=wrap;html=1;" parent="1" vertex="1">
          <mxGeometry x="1802.5" y="862" width="80" height="80" as="geometry" />
        </mxCell>
        <mxCell id="FwptbRE5Cjejp8aSv0t5-7" value="" style="endArrow=none;html=1;rounded=0;exitX=0.5;exitY=0;exitDx=0;exitDy=0;entryX=0.596;entryY=1;entryDx=0;entryDy=0;entryPerimeter=0;" parent="1" source="FwptbRE5Cjejp8aSv0t5-6" edge="1">
          <mxGeometry width="50" height="50" relative="1" as="geometry">
            <mxPoint x="1926" y="896.13" as="sourcePoint" />
            <mxPoint x="1843.8599999999997" y="770.5" as="targetPoint" />
          </mxGeometry>
        </mxCell>
        <mxCell id="FwptbRE5Cjejp8aSv0t5-8" value="" style="endArrow=none;html=1;rounded=0;entryX=0.5;entryY=1;entryDx=0;entryDy=0;exitX=0.585;exitY=0.013;exitDx=0;exitDy=0;exitPerimeter=0;" parent="1" target="FwptbRE5Cjejp8aSv0t5-6" edge="1">
          <mxGeometry width="50" height="50" relative="1" as="geometry">
            <mxPoint x="1842.1000000000004" y="1015.54" as="sourcePoint" />
            <mxPoint x="1888.5" y="930.5" as="targetPoint" />
          </mxGeometry>
        </mxCell>
        <mxCell id="FwptbRE5Cjejp8aSv0t5-9" value="&lt;font style=&quot;font-size: 14px;&quot;&gt;(0,N)&lt;/font&gt;" style="text;html=1;strokeColor=none;fillColor=none;align=center;verticalAlign=middle;whiteSpace=wrap;rounded=0;" parent="1" vertex="1">
          <mxGeometry x="1842.5" y="810.5" width="46" height="20" as="geometry" />
        </mxCell>
        <mxCell id="FwptbRE5Cjejp8aSv0t5-10" value="&lt;font style=&quot;font-size: 14px;&quot;&gt;(1,1)&lt;/font&gt;" style="text;html=1;strokeColor=none;fillColor=none;align=center;verticalAlign=middle;whiteSpace=wrap;rounded=0;" parent="1" vertex="1">
          <mxGeometry x="1842.5" y="985.5" width="46" height="20" as="geometry" />
        </mxCell>
        <mxCell id="6aBFrncr1ybNil_s4C4L-1" value="" style="ellipse;whiteSpace=wrap;html=1;fillColor=#000000;direction=south;gradientColor=none;" vertex="1" parent="1">
          <mxGeometry x="1947.5" y="1001" width="20" height="20" as="geometry" />
        </mxCell>
        <mxCell id="6aBFrncr1ybNil_s4C4L-4" value="E&#39; PRESENTE" style="rhombus;whiteSpace=wrap;html=1;" vertex="1" parent="1">
          <mxGeometry x="1603.5" y="921" width="80" height="80" as="geometry" />
        </mxCell>
        <mxCell id="6aBFrncr1ybNil_s4C4L-5" value="" style="endArrow=none;html=1;rounded=0;entryX=1;entryY=0.25;entryDx=0;entryDy=0;exitX=0;exitY=0.5;exitDx=0;exitDy=0;" edge="1" parent="1" source="6aBFrncr1ybNil_s4C4L-4" target="1GqtW3D0vnaD6hVMnLZm-21">
          <mxGeometry width="50" height="50" relative="1" as="geometry">
            <mxPoint x="1645" y="950" as="sourcePoint" />
            <mxPoint x="1427" y="950" as="targetPoint" />
            <Array as="points">
              <mxPoint x="1560" y="960" />
              <mxPoint x="1560" y="1010" />
            </Array>
          </mxGeometry>
        </mxCell>
        <mxCell id="6aBFrncr1ybNil_s4C4L-6" value="" style="endArrow=none;html=1;rounded=0;entryX=0.25;entryY=1;entryDx=0;entryDy=0;exitX=0.5;exitY=0;exitDx=0;exitDy=0;" edge="1" parent="1" source="6aBFrncr1ybNil_s4C4L-4" target="1GqtW3D0vnaD6hVMnLZm-12">
          <mxGeometry width="50" height="50" relative="1" as="geometry">
            <mxPoint x="1640" y="910" as="sourcePoint" />
            <mxPoint x="1798" y="950" as="targetPoint" />
            <Array as="points">
              <mxPoint x="1640" y="880" />
              <mxPoint x="1780" y="870" />
            </Array>
          </mxGeometry>
        </mxCell>
        <mxCell id="6aBFrncr1ybNil_s4C4L-7" value="&lt;font style=&quot;font-size: 14px;&quot;&gt;(1,1)&lt;/font&gt;" style="text;html=1;strokeColor=none;fillColor=none;align=center;verticalAlign=middle;whiteSpace=wrap;rounded=0;" vertex="1" parent="1">
          <mxGeometry x="1541.5" y="879.5" width="46" height="20" as="geometry" />
        </mxCell>
        <mxCell id="6aBFrncr1ybNil_s4C4L-8" value="&lt;font style=&quot;font-size: 14px;&quot;&gt;(1,N)&lt;/font&gt;" style="text;html=1;strokeColor=none;fillColor=none;align=center;verticalAlign=middle;whiteSpace=wrap;rounded=0;" vertex="1" parent="1">
          <mxGeometry x="1580.5" y="870.5" width="46" height="20" as="geometry" />
        </mxCell>
        <mxCell id="6aBFrncr1ybNil_s4C4L-9" value="" style="endArrow=none;html=1;rounded=0;fontColor=#000000;entryX=0.75;entryY=1;entryDx=0;entryDy=0;" edge="1" parent="1" source="6aBFrncr1ybNil_s4C4L-10" target="FwptbRE5Cjejp8aSv0t5-5">
          <mxGeometry width="50" height="50" relative="1" as="geometry">
            <mxPoint x="1971.88" y="1148.5" as="sourcePoint" />
            <mxPoint x="1879" y="1139" as="targetPoint" />
          </mxGeometry>
        </mxCell>
        <mxCell id="6aBFrncr1ybNil_s4C4L-10" value="" style="ellipse;whiteSpace=wrap;html=1;fillColor=#FFFFFF;direction=south;gradientColor=none;fontColor=#000000;" vertex="1" parent="1">
          <mxGeometry x="1927.5" y="1117" width="20" height="20" as="geometry" />
        </mxCell>
        <mxCell id="6aBFrncr1ybNil_s4C4L-12" value="&lt;span style=&quot;font-size: 18px;&quot;&gt;AbbinatoA&lt;/span&gt;" style="text;html=1;strokeColor=none;fillColor=none;align=center;verticalAlign=middle;whiteSpace=wrap;rounded=0;fontColor=#000000;" vertex="1" parent="1">
          <mxGeometry x="1972.5" y="1114" width="50" height="30" as="geometry" />
        </mxCell>
      </root>
    </mxGraphModel>
  </diagram>
</mxfile>
